<?xml version="1.0" encoding="UTF-8" standalone="no"?>
<!-- Created with Inkscape (http://www.inkscape.org/) -->

<svg
   version="1.1"
   id="svg1"
   width="1058.2299"
   height="793.66296"
   viewBox="0 0 1058.2299 793.66296"
   sodipodi:docname="aho-corasick-lecture-stanford.pdf"
   xmlns:inkscape="http://www.inkscape.org/namespaces/inkscape"
   xmlns:sodipodi="http://sodipodi.sourceforge.net/DTD/sodipodi-0.dtd"
   xmlns="http://www.w3.org/2000/svg"
   xmlns:svg="http://www.w3.org/2000/svg">
  <defs
     id="defs1" />
  <sodipodi:namedview
     id="namedview1"
     pagecolor="#ffffff"
     bordercolor="#000000"
     borderopacity="0.25"
     inkscape:showpageshadow="2"
     inkscape:pageopacity="0.0"
     inkscape:pagecheckerboard="0"
     inkscape:deskcolor="#d1d1d1">
    <inkscape:page
       x="0"
       y="0"
       inkscape:label="24"
       id="page165"
       width="1058.2299"
       height="793.66296"
       margin="0"
       bleed="0" />
  </sodipodi:namedview>
  <g
     id="g1"
     inkscape:groupmode="layer"
     inkscape:label="23"
     transform="translate(-1078.2298)">
    <path
       id="path146-1"
       d="m 1164.6446,622.05941 v 26.66666 h -14.2667 l 24,21.33334 24,-21.33334 h -14.2667 v -26.66666 z m -14.2667,0 z m 48,48 z"
       style="fill:#c5000b;fill-opacity:1;fill-rule:evenodd;stroke:none;stroke-width:1.33333" />
    <path
       id="path147-2"
       d="m 1164.6446,622.05941 v 26.66666 h -14.2667 l 24,21.33334 24,-21.33334 h -14.2667 v -26.66666 z"
       style="fill:none;stroke:#000000;stroke-width:1.33333;stroke-linecap:butt;stroke-linejoin:round;stroke-miterlimit:10;stroke-dasharray:none;stroke-opacity:1" />
    <path
       id="path148-7"
       d="M 1150.3779,622.05941 Z"
       style="fill:none;stroke:#000000;stroke-width:1.33333;stroke-linecap:butt;stroke-linejoin:round;stroke-miterlimit:10;stroke-dasharray:none;stroke-opacity:1" />
    <path
       id="path149-0"
       d="M 1198.3779,670.05941 Z"
       style="fill:none;stroke:#000000;stroke-width:1.33333;stroke-linecap:butt;stroke-linejoin:round;stroke-miterlimit:10;stroke-dasharray:none;stroke-opacity:1" />
    <path
       id="path150-6"
       d="m 1355.5401,769.65718 v -23.33333 h -13.2 l 24,-24.66667 24,24.66667 h -13.2 v 23.33333 z m -13.2,-48 z m 48,48 z"
       style="fill:#000000;fill-opacity:1;fill-rule:evenodd;stroke:none;stroke-width:1.33333" />
    <path
       id="path151-2"
       d="m 1355.5401,769.65718 v -23.33333 h -13.2 l 24,-24.66667 24,24.66667 h -13.2 v 23.33333 z"
       style="fill:none;stroke:#000000;stroke-width:1.33333;stroke-linecap:butt;stroke-linejoin:round;stroke-miterlimit:10;stroke-dasharray:none;stroke-opacity:1" />
    <path
       id="path152-6"
       d="M 1342.3401,721.65718 Z"
       style="fill:none;stroke:#000000;stroke-width:1.33333;stroke-linecap:butt;stroke-linejoin:round;stroke-miterlimit:10;stroke-dasharray:none;stroke-opacity:1" />
    <path
       id="path153-1"
       d="M 1390.3401,769.65718 Z"
       style="fill:none;stroke:#000000;stroke-width:1.33333;stroke-linecap:butt;stroke-linejoin:round;stroke-miterlimit:10;stroke-dasharray:none;stroke-opacity:1" />
  </g>
  <g
     id="g165"
     inkscape:groupmode="layer"
     inkscape:label="24"
     transform="translate(-1078.2298)">
    <path
       id="path172"
       d="m 31.9,577.2 c -7,0 -13.9,-6.9 -13.9,-13.9 V 393.1 c 0,-6.9 6.9,-13.9 13.9,-13.9 h 152.2 c 7,0 13.9,7 13.9,13.9 v 170.2 c 0,7 -6.9,13.9 -13.9,13.9 z m -13.9,0 z m 180,-198 z"
       style="fill:#ffffcc;fill-opacity:1;fill-rule:evenodd;stroke:none"
       transform="matrix(1.3333333,0,0,-1.3333333,1078.2299,793.66299)" />
    <path
       id="path173"
       d="m 31.9,577.2 c -7,0 -13.9,-6.9 -13.9,-13.9 V 393.1 c 0,-6.9 6.9,-13.9 13.9,-13.9 h 152.2 c 7,0 13.9,7 13.9,13.9 v 170.2 c 0,7 -6.9,13.9 -13.9,13.9 z"
       style="fill:none;stroke:#ff950e;stroke-width:2.8866;stroke-linecap:butt;stroke-linejoin:round;stroke-miterlimit:10;stroke-dasharray:none;stroke-opacity:1"
       transform="matrix(1.3333333,0,0,-1.3333333,1078.2299,793.66299)" />
    <path
       id="path174"
       d="M 18,577.2 Z"
       style="fill:none;stroke:#ff950e;stroke-width:2.8866;stroke-linecap:butt;stroke-linejoin:round;stroke-miterlimit:10;stroke-dasharray:none;stroke-opacity:1"
       transform="matrix(1.3333333,0,0,-1.3333333,1078.2299,793.66299)" />
    <path
       id="path175"
       d="M 198,379.2 Z"
       style="fill:none;stroke:#ff950e;stroke-width:2.8866;stroke-linecap:butt;stroke-linejoin:round;stroke-miterlimit:10;stroke-dasharray:none;stroke-opacity:1"
       transform="matrix(1.3333333,0,0,-1.3333333,1078.2299,793.66299)" />
    <path
       id="path176"
       d="M 54,469.2 H 36 v 36 h 36 v -36 z"
       style="fill:#99ccff;fill-opacity:1;fill-rule:evenodd;stroke:#000000;stroke-width:1;stroke-linecap:butt;stroke-linejoin:round;stroke-miterlimit:10;stroke-dasharray:none;stroke-opacity:1"
       transform="matrix(1.3333333,0,0,-1.3333333,1078.2299,793.66299)" />
    <path
       id="path177"
       d="m 7.1376953,-1.6534941 c 0.5771484,0 1.0927735,-0.017578 1.546875,-0.058594 0.459961,-0.038086 0.84375,-0.084961 1.1484375,-0.140625 v -3.8554688 c -0.3046875,-0.09375 -0.6679687,-0.1669922 -1.0898437,-0.2226562 -0.4160157,-0.061523 -0.8554688,-0.09375 -1.3242188,-0.09375 -0.4306641,0 -0.8525391,0.035156 -1.265625,0.1054687 -0.4072266,0.064453 -0.7705078,0.1816406 -1.0898437,0.3515625 -0.3134766,0.1640625 -0.5742188,0.3837891 -0.7851563,0.65625 -0.2050781,0.2666016 -0.3046875,0.6064453 -0.3046875,1.0195313 0,0.8378906 0.2841797,1.4179687 0.8554688,1.7460937 0.5683593,0.328125 1.3388671,0.4921875 2.3085937,0.4921878 z M 6.9150391,-13.301932 c 0.9667968,0 1.7841797,0.123047 2.4492187,0.363282 0.6621092,0.243164 1.1982422,0.580078 1.6054692,1.007812 0.413086,0.430664 0.703125,0.955078 0.867187,1.570313 0.169922,0.6181637 0.257813,1.2890622 0.257813,2.0156247 v 8.12109371 c -0.539063,0.09375 -1.253907,0.20507812 -2.1445317,0.328125 -0.8847656,0.13183593 -1.7929687,0.19921875 -2.7304687,0.19921875 -0.703125,0 -1.3916016,-0.0644531 -2.0625,-0.1875 -0.6738282,-0.1171875 -1.2714844,-0.328125 -1.7929688,-0.6328125 -0.524414,-0.31054688 -0.946289,-0.73828126 -1.265625,-1.27734376 -0.3134766,-0.5390625 -0.46875,-1.2304687 -0.46875,-2.0742187 0,-0.741211 0.1582031,-1.3710938 0.4804688,-1.8867188 0.328125,-0.515625 0.75,-0.9287109 1.265625,-1.2421875 0.515625,-0.3193359 1.1015625,-0.5507812 1.7578125,-0.6914062 0.6621093,-0.140625 1.3300781,-0.2109375 2.0039062,-0.2109375 0.9140625,0 1.8105469,0.1054687 2.6953125,0.3164062 v -0.6445312 c 0,-0.3984375 -0.043945,-0.7763672 -0.1289062,-1.1367188 C 9.6162109,-9.7306425 9.4580078,-10.061697 9.2236328,-10.360525 8.9892578,-10.656424 8.6728516,-10.893728 8.2744141,-11.075369 7.8759766,-11.25408 7.3544922,-11.3449 6.7158203,-11.3449 c -0.796875,0 -1.4970703,0.05859 -2.0976562,0.175781 -0.5947266,0.111328 -1.0517578,0.219726 -1.3710938,0.328125 l -0.28125,-1.898438 c 0.319336,-0.146484 0.8466797,-0.27539 1.5820313,-0.386718 0.7412109,-0.117188 1.5292968,-0.175782 2.3671875,-0.175782 z m 0,0"
       style="fill:#000000;fill-opacity:1;fill-rule:nonzero;stroke:none"
       aria-label="a"
       transform="matrix(1.3333333,0,0,1.3333333,1140.8966,156.32966)" />
    <path
       id="path178"
       d="M 90,469.2 H 72 v 36 h 36 v -36 z"
       style="fill:#99ccff;fill-opacity:1;fill-rule:evenodd;stroke:#000000;stroke-width:1;stroke-linecap:butt;stroke-linejoin:round;stroke-miterlimit:10;stroke-dasharray:none;stroke-opacity:1"
       transform="matrix(1.3333333,0,0,-1.3333333,1078.2299,793.66299)" />
    <path
       id="path179"
       d="M 3.0009766,-0.00115034 V -12.294119 c 1.8984375,-0.647461 3.8203125,-0.972656 5.765625,-0.972656 0.5917968,0 1.1601562,0.02344 1.6992184,0.07031 0.544922,0.04687 1.142578,0.146485 1.792969,0.292969 l -0.410156,2.039062 c -0.603516,-0.164062 -1.133789,-0.269531 -1.59375,-0.316406 -0.4541017,-0.04687 -0.9492189,-0.07031 -1.4882814,-0.07031 -1.1425782,0 -2.296875,0.158203 -3.46875,0.46875 v 10.78124966 z m 0,0"
       style="fill:#000000;fill-opacity:1;fill-rule:nonzero;stroke:none"
       aria-label="r"
       transform="matrix(1.3333333,0,0,1.3333333,1188.8966,156.32966)" />
    <path
       id="path180"
       d="M 54,397.2 H 36 v 36 h 36 v -36 z"
       style="fill:#99ccff;fill-opacity:1;fill-rule:evenodd;stroke:#000000;stroke-width:1;stroke-linecap:butt;stroke-linejoin:round;stroke-miterlimit:10;stroke-dasharray:none;stroke-opacity:1"
       transform="matrix(1.3333333,0,0,-1.3333333,1078.2299,793.66299)" />
    <path
       id="path181"
       d="m 9.8330078,-3.2472441 c 0,-0.46875 -0.1933594,-0.8496094 -0.5742187,-1.1484375 C 8.875,-4.69158 8.3974609,-4.9523222 7.8291016,-5.1808378 7.2578125,-5.4064238 6.6367187,-5.6261503 5.9658203,-5.8370878 5.2919922,-6.0538847 4.6708984,-6.3204863 4.1025391,-6.6339628 3.53125,-6.9532988 3.0537109,-7.3429472 2.6728516,-7.8058378 c -0.3837891,-0.46875 -0.5742188,-1.078125 -0.5742188,-1.828125 0,-1.0458982 0.4248047,-1.9160152 1.2773438,-2.6132812 0.8496093,-0.703125 2.1796875,-1.054688 3.984375,-1.054688 0.7089843,0 1.4443359,0.05566 2.203125,0.164063 0.7558594,0.102539 1.4062504,0.234375 1.9453124,0.398437 l -0.421875,2.074219 c -0.149414,-0.07617 -0.357422,-0.155273 -0.621094,-0.234375 -0.257812,-0.08496 -0.5566403,-0.158203 -0.8906247,-0.222656 -0.336914,-0.07031 -0.6972656,-0.123047 -1.078125,-0.164063 -0.383789,-0.03809 -0.75,-0.05859 -1.1015625,-0.05859 -2.015625,0 -3.0234375,0.550781 -3.0234375,1.6523434 0,0.3984375 0.1904297,0.7353516 0.5742188,1.0078125 0.3808593,0.2666016 0.8613281,0.5126953 1.4414062,0.7382813 0.5771484,0.2197265 1.2011719,0.4453125 1.875,0.6796875 0.6708985,0.234375 1.2949219,0.5214843 1.8749997,0.8554687 0.577149,0.3369141 1.057618,0.7441406 1.441407,1.21875 0.380859,0.4775391 0.574218,1.078125 0.574218,1.8046875 0,1.171875 -0.457031,2.0830078 -1.371093,2.73046876 -0.9140629,0.64160156 -2.3642582,0.9609375 -4.3476567,0.9609375 -0.890625,0 -1.7109375,-0.0761719 -2.4609375,-0.22265625 C 3.2294922,-0.06560347 2.5234375,-0.28825972 1.8525391,-0.58708784 L 2.2978516,-2.6847441 c 0.65625,0.2988281 1.3388672,0.5449219 2.0507812,0.7382813 0.7177734,0.196289 1.4912109,0.2929687 2.3203125,0.2929687 2.109375,0 3.1640625,-0.5302734 3.1640625,-1.59375 z m 0,0"
       style="fill:#000000;fill-opacity:1;fill-rule:nonzero;stroke:none"
       aria-label="s"
       transform="matrix(1.3333333,0,0,1.3333333,1140.8966,252.32966)" />
    <path
       id="path182"
       d="M 90,397.2 H 72 v 36 h 36 v -36 z"
       style="fill:#99ccff;fill-opacity:1;fill-rule:evenodd;stroke:#000000;stroke-width:1;stroke-linecap:butt;stroke-linejoin:round;stroke-miterlimit:10;stroke-dasharray:none;stroke-opacity:1"
       transform="matrix(1.3333333,0,0,-1.3333333,1078.2299,793.66299)" />
    <path
       id="path183"
       d="m 12.879883,-6.4933378 c 0,1.0253906 -0.146485,1.9541015 -0.433594,2.7890625 -0.290039,0.8291015 -0.697266,1.5439453 -1.21875,2.1445312 -0.524414,0.59472657 -1.148437,1.05468751 -1.8749999,1.38281251 -0.7265625,0.31933593 -1.5205079,0.48046875 -2.3789063,0.48046875 -0.84375,0 -1.6259766,-0.16113282 -2.34375,-0.48046875 C 3.9091797,-0.50505659 3.2880859,-0.96501753 2.7666016,-1.5597441 2.2509766,-2.16033 1.8466797,-2.8751738 1.5595703,-3.7042753 1.2695312,-4.5392363 1.1259766,-5.4679472 1.1259766,-6.4933378 c 0,-1.03125 0.1435546,-1.9628907 0.4335937,-2.8007813 0.2871094,-0.8437499 0.6914063,-1.5585939 1.2070313,-2.1445309 0.5214843,-0.585938 1.1425781,-1.042969 1.8632812,-1.371094 0.7177734,-0.328125 1.5,-0.492188 2.34375,-0.492188 0.8583984,0 1.6523438,0.164063 2.3789063,0.492188 0.7265629,0.328125 1.3505859,0.785156 1.8749999,1.371094 0.521484,0.585937 0.928711,1.300781 1.21875,2.1445309 0.287109,0.8378906 0.433594,1.7695313 0.433594,2.8007813 z m -2.378906,0 c 0,-1.4765625 -0.322266,-2.6367188 -0.9609379,-3.4804688 C 8.9072266,-10.823416 8.0517578,-11.25115 6.9736328,-11.25115 c -1.0634766,0 -1.9072266,0.427734 -2.53125,1.2773434 -0.6269531,0.84375 -0.9375,2.0039063 -0.9375,3.4804688 0,1.453125 0.3105469,2.6074218 0.9375,3.4570312 0.6240234,0.84375 1.4677734,1.265625 2.53125,1.265625 1.078125,0 1.9335938,-0.421875 2.5664063,-1.265625 0.6386719,-0.8496094 0.9609379,-2.0039062 0.9609379,-3.4570312 z m 0,0"
       style="fill:#000000;fill-opacity:1;fill-rule:nonzero;stroke:none"
       aria-label="o"
       transform="matrix(1.3333333,0,0,1.3333333,1188.8966,252.32966)" />
    <path
       id="path184"
       d="m 126,397.2 h -18 v 36 h 36 v -36 z"
       style="fill:#99ccff;fill-opacity:1;fill-rule:evenodd;stroke:#000000;stroke-width:1;stroke-linecap:butt;stroke-linejoin:round;stroke-miterlimit:10;stroke-dasharray:none;stroke-opacity:1"
       transform="matrix(1.3333333,0,0,-1.3333333,1078.2299,793.66299)" />
    <path
       id="path185"
       d="m 7.1376953,-1.6534941 c 0.5771484,0 1.0927735,-0.017578 1.546875,-0.058594 0.459961,-0.038086 0.84375,-0.084961 1.1484375,-0.140625 v -3.8554688 c -0.3046875,-0.09375 -0.6679687,-0.1669922 -1.0898437,-0.2226562 -0.4160157,-0.061523 -0.8554688,-0.09375 -1.3242188,-0.09375 -0.4306641,0 -0.8525391,0.035156 -1.265625,0.1054687 -0.4072266,0.064453 -0.7705078,0.1816406 -1.0898437,0.3515625 -0.3134766,0.1640625 -0.5742188,0.3837891 -0.7851563,0.65625 -0.2050781,0.2666016 -0.3046875,0.6064453 -0.3046875,1.0195313 0,0.8378906 0.2841797,1.4179687 0.8554688,1.7460937 0.5683593,0.328125 1.3388671,0.4921875 2.3085937,0.4921878 z M 6.9150391,-13.301932 c 0.9667968,0 1.7841797,0.123047 2.4492187,0.363282 0.6621092,0.243164 1.1982422,0.580078 1.6054692,1.007812 0.413086,0.430664 0.703125,0.955078 0.867187,1.570313 0.169922,0.6181637 0.257813,1.2890622 0.257813,2.0156247 v 8.12109371 c -0.539063,0.09375 -1.253907,0.20507812 -2.1445317,0.328125 -0.8847656,0.13183593 -1.7929687,0.19921875 -2.7304687,0.19921875 -0.703125,0 -1.3916016,-0.0644531 -2.0625,-0.1875 -0.6738282,-0.1171875 -1.2714844,-0.328125 -1.7929688,-0.6328125 -0.524414,-0.31054688 -0.946289,-0.73828126 -1.265625,-1.27734376 -0.3134766,-0.5390625 -0.46875,-1.2304687 -0.46875,-2.0742187 0,-0.741211 0.1582031,-1.3710938 0.4804688,-1.8867188 0.328125,-0.515625 0.75,-0.9287109 1.265625,-1.2421875 0.515625,-0.3193359 1.1015625,-0.5507812 1.7578125,-0.6914062 0.6621093,-0.140625 1.3300781,-0.2109375 2.0039062,-0.2109375 0.9140625,0 1.8105469,0.1054687 2.6953125,0.3164062 v -0.6445312 c 0,-0.3984375 -0.043945,-0.7763672 -0.1289062,-1.1367188 C 9.6162109,-9.7306425 9.4580078,-10.061697 9.2236328,-10.360525 8.9892578,-10.656424 8.6728516,-10.893728 8.2744141,-11.075369 7.8759766,-11.25408 7.3544922,-11.3449 6.7158203,-11.3449 c -0.796875,0 -1.4970703,0.05859 -2.0976562,0.175781 -0.5947266,0.111328 -1.0517578,0.219726 -1.3710938,0.328125 l -0.28125,-1.898438 c 0.319336,-0.146484 0.8466797,-0.27539 1.5820313,-0.386718 0.7412109,-0.117188 1.5292968,-0.175782 2.3671875,-0.175782 z m 0,0"
       style="fill:#000000;fill-opacity:1;fill-rule:nonzero;stroke:none"
       aria-label="a"
       transform="matrix(1.3333333,0,0,1.3333333,1236.8966,252.32966)" />
    <text
       id="text185"
       xml:space="preserve"
       transform="matrix(1.3333333,0,0,1.3333333,1119.0299,51.396325)"><tspan
         id="tspan185"
         style="font-variant:normal;font-weight:700;font-size:18px;font-family:'DejaVu Serif';writing-mode:lr-tb;fill:#c5000b;fill-opacity:1;fill-rule:nonzero;stroke:none"
         x="0"
         y="0">P</tspan></text>
    <text
       id="text186"
       xml:space="preserve"
       transform="matrix(1.3333333,0,0,1.3333333,1136.5019,51.396325)"><tspan
         id="tspan186"
         style="font-variant:normal;font-weight:700;font-size:18px;font-family:'DejaVu Serif';writing-mode:lr-tb;fill:#c5000b;fill-opacity:1;fill-rule:nonzero;stroke:none"
         x="0"
         dx="0 -0.054000001 0 0 -0.054000001 0.017999999 -0.090000004 0.017999999 0 -0.090000004 0.017999999 -0.017999999"
         y="0">attern Strings</tspan></text>
    <path
       id="path186"
       d="m 126,469.2 h -18 v 36 h 36 v -36 z"
       style="fill:#99ccff;fill-opacity:1;fill-rule:evenodd;stroke:#000000;stroke-width:1;stroke-linecap:butt;stroke-linejoin:round;stroke-miterlimit:10;stroke-dasharray:none;stroke-opacity:1"
       transform="matrix(1.3333333,0,0,-1.3333333,1078.2299,793.66299)" />
    <path
       id="path187"
       d="m 6.8095703,-12.985525 h 5.4843747 v 1.921875 H 6.8095703 v 6.0468747 c 0,0.65625 0.041016,1.1923828 0.1289063,1.6054687 0.09375,0.4072266 0.2460937,0.7382813 0.4570312,0.9960938 0.2167969,0.2519531 0.4951172,0.421875 0.8320313,0.515625 0.3339843,0.087891 0.7441406,0.1289062 1.2304687,0.1289062 0.6708982,0 1.2128902,-0.052734 1.6289062,-0.1640625 0.413086,-0.1083984 0.802734,-0.2578125 1.171875,-0.4453125 l 0.339844,1.95703126 c -0.257813,0.11132812 -0.673828,0.2578125 -1.242188,0.4453125 -0.571289,0.1875 -1.277343,0.28125 -2.1210934,0.28125 -0.9697266,0 -1.7636719,-0.11132813 -2.3789063,-0.328125 -0.6181641,-0.22558594 -1.0986328,-0.5625 -1.4414062,-1.00781246 -0.3457032,-0.4511719 -0.5830079,-1.0078125 -0.7148438,-1.6640625 -0.1259766,-0.6621094 -0.1875,-1.4355469 -0.1875,-2.3203125 V -11.06365 H 1.7705078 v -1.921875 h 2.7421875 v -3.644532 l 2.296875,-0.398437 z m 0,0"
       style="fill:#000000;fill-opacity:1;fill-rule:nonzero;stroke:none"
       aria-label="t"
       transform="matrix(1.3333333,0,0,1.3333333,1236.8966,156.32966)" />
    <path
       id="path188"
       d="m 315,343.2 c 15.3,0 27,-11.7 27,-27 0,-15.3 -11.7,-27 -27,-27 -15.3,0 -27,11.7 -27,27 0,15.3 11.7,27 27,27 z m -27,0 z m 54,-54 z"
       style="fill:#e6e6e6;fill-opacity:1;fill-rule:evenodd;stroke:none"
       transform="matrix(1.3333333,0,0,-1.3333333,1078.2299,793.66299)" />
    <path
       id="path189"
       d="m 315,343.2 c 15.3,0 27,-11.7 27,-27 0,-15.3 -11.7,-27 -27,-27 -15.3,0 -27,11.7 -27,27 0,15.3 11.7,27 27,27 z"
       style="fill:none;stroke:#000000;stroke-width:1.4433;stroke-linecap:butt;stroke-linejoin:round;stroke-miterlimit:10;stroke-dasharray:none;stroke-opacity:1"
       transform="matrix(1.3333333,0,0,-1.3333333,1078.2299,793.66299)" />
    <path
       id="path190"
       d="M 288,343.2 Z"
       style="fill:none;stroke:#000000;stroke-width:1.4433;stroke-linecap:butt;stroke-linejoin:round;stroke-miterlimit:10;stroke-dasharray:none;stroke-opacity:1"
       transform="matrix(1.3333333,0,0,-1.3333333,1078.2299,793.66299)" />
    <path
       id="path191"
       d="M 342,289.2 Z"
       style="fill:none;stroke:#000000;stroke-width:1.4433;stroke-linecap:butt;stroke-linejoin:round;stroke-miterlimit:10;stroke-dasharray:none;stroke-opacity:1"
       transform="matrix(1.3333333,0,0,-1.3333333,1078.2299,793.66299)" />
    <path
       id="path192"
       d="m 295.9,335.3 v 106.9 h 92.3"
       style="fill:none;stroke:#000000;stroke-width:1.4433;stroke-linecap:butt;stroke-linejoin:round;stroke-miterlimit:10;stroke-dasharray:none;stroke-opacity:1"
       transform="matrix(1.3333333,0,0,-1.3333333,1078.2299,793.66299)" />
    <path
       id="path193"
       d="m 396,442.2 -8.5,5.3 v -10.6 z"
       style="fill:#000000;fill-opacity:1;fill-rule:evenodd;stroke:none"
       transform="matrix(1.3333333,0,0,-1.3333333,1078.2299,793.66299)" />
    <path
       id="path194"
       d="m 6.1162109,-1.4179472 c 0.4980469,0 0.9433594,-0.014649 1.3359375,-0.046875 0.3896485,-0.029297 0.7148438,-0.070312 0.9726563,-0.1171875 V -4.898416 C 8.1669922,-4.974588 7.8564453,-5.039041 7.4990234,-5.085916 7.1386719,-5.132791 6.7607422,-5.156228 6.3623047,-5.156228 c -0.3691406,0 -0.7265625,0.029297 -1.078125,0.082031 -0.3515625,0.055664 -0.6650391,0.1582031 -0.9375,0.3046875 -0.2753906,0.140625 -0.5009766,0.328125 -0.6796875,0.5625 -0.1728516,0.2285156 -0.2578125,0.515625 -0.2578125,0.8671875 0,0.7207031 0.2402344,1.21875 0.7265625,1.5 0.4921875,0.28125 1.1513672,0.421875 1.9804687,0.4218748 z m -0.1875,-9.9843748 c 0.8261719,0 1.5263672,0.105469 2.0976563,0.316406 0.5683594,0.205078 1.03125,0.492188 1.3828125,0.867188 0.3515625,0.3691402 0.5976563,0.8173823 0.7382813,1.3476558 0.146484,0.524414 0.222656,1.0986328 0.222656,1.7226562 v 6.96093753 c -0.4687498,0.0791016 -1.0839842,0.17285156 -1.8398436,0.28125 -0.758789,0.1171875 -1.5410156,0.17578125 -2.34375,0.17578125 -0.6035156,0 -1.1923828,-0.0556641 -1.7695312,-0.1640625 C 3.8369141,0.00295122 3.3212891,-0.17868941 2.8701172,-0.44529097 2.4248047,-0.70896284 2.0644531,-1.0722441 1.7919922,-1.5351347 c -0.2666016,-0.459961 -0.3984375,-1.0546875 -0.3984375,-1.78125 0,-0.6386719 0.1347656,-1.1777344 0.4101562,-1.6171875 0.28125,-0.4365235 0.6386719,-0.7910156 1.078125,-1.0664063 0.4453125,-0.2724609 0.9521485,-0.46875 1.5234375,-0.5859375 0.5683594,-0.1230468 1.1396485,-0.1875 1.7109375,-0.1875 0.788086,0 1.5585938,0.09082 2.3085938,0.2695313 V -7.054666 c 0,-0.3339843 -0.041016,-0.6591797 -0.1171875,-0.9726562 C 8.2373047,-8.3378691 8.0996094,-8.6249785 7.8974609,-8.882791 7.7011719,-9.1406035 7.4316406,-9.3427519 7.0888672,-9.492166 6.7431641,-9.6386503 6.3037109,-9.7148222 5.7646484,-9.7148222 c -0.6972656,0 -1.3007812,0.046875 -1.8164062,0.140625 -0.5097656,0.09375 -0.8964844,0.1875 -1.1601563,0.28125 L 2.5419922,-10.921853 c 0.2724609,-0.123047 0.7265625,-0.234375 1.359375,-0.328125 0.6328125,-0.09961 1.3066406,-0.152344 2.0273437,-0.152344 z m 0,0"
       style="fill:#000000;fill-opacity:1;fill-rule:nonzero;stroke:none"
       aria-label="a"
       transform="matrix(1.3333333,0,0,1.3333333,1531.5633,189.92966)" />
    <path
       id="path195"
       d="m 162,397.2 h -18 v 36 h 36 v -36 z"
       style="fill:#99ccff;fill-opacity:1;fill-rule:evenodd;stroke:#000000;stroke-width:1;stroke-linecap:butt;stroke-linejoin:round;stroke-miterlimit:10;stroke-dasharray:none;stroke-opacity:1"
       transform="matrix(1.3333333,0,0,-1.3333333,1078.2299,793.66299)" />
    <path
       id="path196"
       d="M 3.0009766,-0.00115034 V -12.294119 c 1.8984375,-0.647461 3.8203125,-0.972656 5.765625,-0.972656 0.5917968,0 1.1601562,0.02344 1.6992184,0.07031 0.544922,0.04687 1.142578,0.146485 1.792969,0.292969 l -0.410156,2.039062 c -0.603516,-0.164062 -1.133789,-0.269531 -1.59375,-0.316406 -0.4541017,-0.04687 -0.9492189,-0.07031 -1.4882814,-0.07031 -1.1425782,0 -2.296875,0.158203 -3.46875,0.46875 v 10.78124966 z m 0,0"
       style="fill:#000000;fill-opacity:1;fill-rule:nonzero;stroke:none"
       aria-label="r"
       transform="matrix(1.3333333,0,0,1.3333333,1284.8966,252.32966)" />
    <path
       id="path197"
       d="m 423,469.2 c 15.3,0 27,-11.7 27,-27 0,-15.3 -11.7,-27 -27,-27 -15.3,0 -27,11.7 -27,27 0,15.3 11.7,27 27,27 z m -27,0 z m 54,-54 z"
       style="fill:#e6e6e6;fill-opacity:1;fill-rule:evenodd;stroke:none"
       transform="matrix(1.3333333,0,0,-1.3333333,1078.2299,793.66299)" />
    <path
       id="path198"
       d="m 423,469.2 c 15.3,0 27,-11.7 27,-27 0,-15.3 -11.7,-27 -27,-27 -15.3,0 -27,11.7 -27,27 0,15.3 11.7,27 27,27 z"
       style="fill:none;stroke:#000000;stroke-width:1.4433;stroke-linecap:butt;stroke-linejoin:round;stroke-miterlimit:10;stroke-dasharray:none;stroke-opacity:1"
       transform="matrix(1.3333333,0,0,-1.3333333,1078.2299,793.66299)" />
    <path
       id="path199"
       d="M 396,469.2 Z"
       style="fill:none;stroke:#000000;stroke-width:1.4433;stroke-linecap:butt;stroke-linejoin:round;stroke-miterlimit:10;stroke-dasharray:none;stroke-opacity:1"
       transform="matrix(1.3333333,0,0,-1.3333333,1078.2299,793.66299)" />
    <path
       id="path200"
       d="M 450,415.2 Z"
       style="fill:none;stroke:#000000;stroke-width:1.4433;stroke-linecap:butt;stroke-linejoin:round;stroke-miterlimit:10;stroke-dasharray:none;stroke-opacity:1"
       transform="matrix(1.3333333,0,0,-1.3333333,1078.2299,793.66299)" />
    <path
       id="path201"
       d="m 423,343.2 c 15.3,0 27,-11.7 27,-27 0,-15.3 -11.7,-27 -27,-27 -15.3,0 -27,11.7 -27,27 0,15.3 11.7,27 27,27 z m -27,0 z m 54,-54 z"
       style="fill:#e6e6e6;fill-opacity:1;fill-rule:evenodd;stroke:none"
       transform="matrix(1.3333333,0,0,-1.3333333,1078.2299,793.66299)" />
    <path
       id="path202"
       d="m 423,343.2 c 15.3,0 27,-11.7 27,-27 0,-15.3 -11.7,-27 -27,-27 -15.3,0 -27,11.7 -27,27 0,15.3 11.7,27 27,27 z"
       style="fill:none;stroke:#000000;stroke-width:1.4433;stroke-linecap:butt;stroke-linejoin:round;stroke-miterlimit:10;stroke-dasharray:none;stroke-opacity:1"
       transform="matrix(1.3333333,0,0,-1.3333333,1078.2299,793.66299)" />
    <path
       id="path203"
       d="M 396,343.2 Z"
       style="fill:none;stroke:#000000;stroke-width:1.4433;stroke-linecap:butt;stroke-linejoin:round;stroke-miterlimit:10;stroke-dasharray:none;stroke-opacity:1"
       transform="matrix(1.3333333,0,0,-1.3333333,1078.2299,793.66299)" />
    <path
       id="path204"
       d="M 450,289.2 Z"
       style="fill:none;stroke:#000000;stroke-width:1.4433;stroke-linecap:butt;stroke-linejoin:round;stroke-miterlimit:10;stroke-dasharray:none;stroke-opacity:1"
       transform="matrix(1.3333333,0,0,-1.3333333,1078.2299,793.66299)" />
    <path
       id="path205"
       d="m 531,343.2 c 15.3,0 27,-11.7 27,-27 0,-15.3 -11.7,-27 -27,-27 -15.3,0 -27,11.7 -27,27 0,15.3 11.7,27 27,27 z m -27,0 z m 54,-54 z"
       style="fill:#e6e6e6;fill-opacity:1;fill-rule:evenodd;stroke:none"
       transform="matrix(1.3333333,0,0,-1.3333333,1078.2299,793.66299)" />
    <path
       id="path206"
       d="m 531,343.2 c 15.3,0 27,-11.7 27,-27 0,-15.3 -11.7,-27 -27,-27 -15.3,0 -27,11.7 -27,27 0,15.3 11.7,27 27,27 z"
       style="fill:none;stroke:#000000;stroke-width:1.4433;stroke-linecap:butt;stroke-linejoin:round;stroke-miterlimit:10;stroke-dasharray:none;stroke-opacity:1"
       transform="matrix(1.3333333,0,0,-1.3333333,1078.2299,793.66299)" />
    <path
       id="path207"
       d="M 504,343.2 Z"
       style="fill:none;stroke:#000000;stroke-width:1.4433;stroke-linecap:butt;stroke-linejoin:round;stroke-miterlimit:10;stroke-dasharray:none;stroke-opacity:1"
       transform="matrix(1.3333333,0,0,-1.3333333,1078.2299,793.66299)" />
    <path
       id="path208"
       d="M 558,289.2 Z"
       style="fill:none;stroke:#000000;stroke-width:1.4433;stroke-linecap:butt;stroke-linejoin:round;stroke-miterlimit:10;stroke-dasharray:none;stroke-opacity:1"
       transform="matrix(1.3333333,0,0,-1.3333333,1078.2299,793.66299)" />
    <path
       id="path209"
       d="m 639,343.2 c 15.3,0 27,-11.7 27,-27 0,-15.3 -11.7,-27 -27,-27 -15.3,0 -27,11.7 -27,27 0,15.3 11.7,27 27,27 z m -27,0 z m 54,-54 z"
       style="fill:#e6e6e6;fill-opacity:1;fill-rule:evenodd;stroke:none"
       transform="matrix(1.3333333,0,0,-1.3333333,1078.2299,793.66299)" />
    <path
       id="path210"
       d="m 639,343.2 c 15.3,0 27,-11.7 27,-27 0,-15.3 -11.7,-27 -27,-27 -15.3,0 -27,11.7 -27,27 0,15.3 11.7,27 27,27 z"
       style="fill:none;stroke:#000000;stroke-width:1.4433;stroke-linecap:butt;stroke-linejoin:round;stroke-miterlimit:10;stroke-dasharray:none;stroke-opacity:1"
       transform="matrix(1.3333333,0,0,-1.3333333,1078.2299,793.66299)" />
    <path
       id="path211"
       d="M 612,343.2 Z"
       style="fill:none;stroke:#000000;stroke-width:1.4433;stroke-linecap:butt;stroke-linejoin:round;stroke-miterlimit:10;stroke-dasharray:none;stroke-opacity:1"
       transform="matrix(1.3333333,0,0,-1.3333333,1078.2299,793.66299)" />
    <path
       id="path212"
       d="M 666,289.2 Z"
       style="fill:none;stroke:#000000;stroke-width:1.4433;stroke-linecap:butt;stroke-linejoin:round;stroke-miterlimit:10;stroke-dasharray:none;stroke-opacity:1"
       transform="matrix(1.3333333,0,0,-1.3333333,1078.2299,793.66299)" />
    <path
       id="path213"
       d="m 747,343.2 c 15.3,0 27,-11.7 27,-27 0,-15.3 -11.7,-27 -27,-27 -15.3,0 -27,11.7 -27,27 0,15.3 11.7,27 27,27 z m -27,0 z m 54,-54 z"
       style="fill:#e6e6e6;fill-opacity:1;fill-rule:evenodd;stroke:none"
       transform="matrix(1.3333333,0,0,-1.3333333,1078.2299,793.66299)" />
    <path
       id="path214"
       d="m 747,343.2 c 15.3,0 27,-11.7 27,-27 0,-15.3 -11.7,-27 -27,-27 -15.3,0 -27,11.7 -27,27 0,15.3 11.7,27 27,27 z"
       style="fill:none;stroke:#000000;stroke-width:1.4433;stroke-linecap:butt;stroke-linejoin:round;stroke-miterlimit:10;stroke-dasharray:none;stroke-opacity:1"
       transform="matrix(1.3333333,0,0,-1.3333333,1078.2299,793.66299)" />
    <path
       id="path215"
       d="M 720,343.2 Z"
       style="fill:none;stroke:#000000;stroke-width:1.4433;stroke-linecap:butt;stroke-linejoin:round;stroke-miterlimit:10;stroke-dasharray:none;stroke-opacity:1"
       transform="matrix(1.3333333,0,0,-1.3333333,1078.2299,793.66299)" />
    <path
       id="path216"
       d="M 774,289.2 Z"
       style="fill:none;stroke:#000000;stroke-width:1.4433;stroke-linecap:butt;stroke-linejoin:round;stroke-miterlimit:10;stroke-dasharray:none;stroke-opacity:1"
       transform="matrix(1.3333333,0,0,-1.3333333,1078.2299,793.66299)" />
    <path
       id="path217"
       d="m 342,316.2 h 46.2"
       style="fill:none;stroke:#000000;stroke-width:1.4433;stroke-linecap:butt;stroke-linejoin:round;stroke-miterlimit:10;stroke-dasharray:none;stroke-opacity:1"
       transform="matrix(1.3333333,0,0,-1.3333333,1078.2299,793.66299)" />
    <path
       id="path218"
       d="m 396,316.2 -8.5,5.3 v -10.6 z"
       style="fill:#000000;fill-opacity:1;fill-rule:evenodd;stroke:none"
       transform="matrix(1.3333333,0,0,-1.3333333,1078.2299,793.66299)" />
    <path
       id="path219"
       d="m 11.039063,-5.5654082 c 0,0.8847657 -0.125977,1.6816407 -0.375,2.390625 -0.243165,0.7119141 -0.591797,1.3242188 -1.0429692,1.8398438 -0.4453125,0.50976562 -0.9814454,0.90234374 -1.6054688,1.18359374 -0.6269531,0.28125 -1.3066406,0.421875 -2.0390625,0.421875 -0.7207031,0 -1.3886719,-0.140625 -2.0039062,-0.421875 C 3.3544922,-0.43259566 2.8183594,-0.82517378 2.3671875,-1.3349394 1.921875,-1.8505644 1.5732422,-2.4628691 1.3242187,-3.1747832 1.0810547,-3.8837675 0.9609375,-4.6806425 0.9609375,-5.5654082 c 0,-0.8818359 0.1201172,-1.6816406 0.3632812,-2.4023437 0.2490235,-0.7177734 0.5976563,-1.3271484 1.0429688,-1.828125 0.4511719,-0.5068361 0.9873047,-0.9023441 1.6054688,-1.1835941 0.6152343,-0.28125 1.2832031,-0.421875 2.0039062,-0.421875 0.7324219,0 1.4121094,0.140625 2.0390625,0.421875 0.6240234,0.28125 1.1601563,0.676758 1.6054688,1.1835941 0.4511722,0.5009766 0.7998042,1.1103516 1.0429692,1.828125 0.249023,0.7207031 0.375,1.5205078 0.375,2.4023437 z m -2.039063,0 C 9,-6.8310332 8.7246094,-7.8271269 8.1796875,-8.5536894 7.640625,-9.2802519 6.9052734,-9.6435332 5.9765625,-9.6435332 c -0.9140625,0 -1.640625,0.3632813 -2.1796875,1.0898438 C 3.2636719,-7.8271269 3,-6.8310332 3,-5.5654082 c 0,1.2509766 0.2636719,2.2382813 0.796875,2.9648438 0.5390625,0.7265625 1.265625,1.0898437 2.1796875,1.0898437 0.9287109,0 1.6640625,-0.3632812 2.203125,-1.0898437 C 8.7246094,-3.3271269 9,-4.3144316 9,-5.5654082 Z m 0,0"
       style="fill:#000000;fill-opacity:1;fill-rule:nonzero;stroke:none"
       aria-label="o"
       transform="matrix(1.3333333,0,0,1.3333333,1562.2299,366.59633)" />
    <path
       id="path220"
       d="m 450,316.2 h 27 v 0 h 19.2"
       style="fill:none;stroke:#000000;stroke-width:1.4433;stroke-linecap:butt;stroke-linejoin:round;stroke-miterlimit:10;stroke-dasharray:none;stroke-opacity:1"
       transform="matrix(1.3333333,0,0,-1.3333333,1078.2299,793.66299)" />
    <path
       id="path221"
       d="m 504,316.2 -8.5,5.3 v -10.6 z"
       style="fill:#000000;fill-opacity:1;fill-rule:evenodd;stroke:none"
       transform="matrix(1.3333333,0,0,-1.3333333,1078.2299,793.66299)" />
    <path
       id="path222"
       d="m 6.1171875,-1.4169707 c 0.4980469,0 0.9433594,-0.014648 1.3359375,-0.046875 0.3896484,-0.029297 0.7148438,-0.070312 0.9726563,-0.1171875 V -4.8974394 C 8.1679688,-4.9736113 7.8574219,-5.0380644 7.5,-5.0849394 c -0.3603516,-0.046875 -0.7382813,-0.070312 -1.1367188,-0.070312 -0.3691406,0 -0.7265625,0.029297 -1.078125,0.082031 -0.3515625,0.055664 -0.665039,0.1582032 -0.9375,0.3046875 -0.2753906,0.140625 -0.5009765,0.328125 -0.6796874,0.5625 -0.1728516,0.2285157 -0.2578125,0.515625 -0.2578125,0.8671875 0,0.7207032 0.2402343,1.21875 0.7265624,1.5 0.4921875,0.28125 1.1513672,0.421875 1.9804688,0.4218747 z m -0.1875,-9.9843753 c 0.8261719,0 1.5263672,0.105469 2.0976563,0.316407 0.5683593,0.205078 1.03125,0.492187 1.3828125,0.867187 0.3515625,0.3691407 0.5976567,0.8173829 0.7382817,1.3476563 0.146484,0.5244141 0.222656,1.0986329 0.222656,1.7226563 v 6.96093749 c -0.4687502,0.0791016 -1.0839846,0.17285157 -1.839844,0.28125 -0.7587891,0.1171875 -1.5410156,0.17578125 -2.34375,0.17578125 -0.6035156,0 -1.1923828,-0.0556641 -1.7695313,-0.1640625 C 3.8378906,0.00392778 3.3222656,-0.17771284 2.8710938,-0.44431441 2.4257813,-0.70798628 2.0654297,-1.0712675 1.7929687,-1.5341582 1.5263672,-1.9941191 1.3945312,-2.5888457 1.3945312,-3.3154082 c 0,-0.6386718 0.1347657,-1.1777343 0.4101563,-1.6171875 0.28125,-0.4365234 0.6386719,-0.7910156 1.078125,-1.0664062 0.4453125,-0.2724609 0.9521484,-0.46875 1.5234375,-0.5859375 0.5683594,-0.1230469 1.1396484,-0.1875 1.7109375,-0.1875 0.7880859,0 1.5585937,0.09082 2.3085938,0.2695312 v -0.5507812 c 0,-0.3339844 -0.041016,-0.6591797 -0.1171875,-0.9726563 C 8.2382813,-8.3368925 8.1005859,-8.6240019 7.8984375,-8.8818144 7.7021484,-9.1396269 7.4326172,-9.3417753 7.0898437,-9.4911894 6.7441406,-9.6376738 6.3046875,-9.7138457 5.765625,-9.7138457 c -0.6972656,0 -1.3007813,0.046875 -1.8164062,0.140625 -0.5097657,0.09375 -0.8964844,0.1875 -1.1601563,0.28125 L 2.5429688,-10.920877 c 0.2724609,-0.123047 0.7265625,-0.234375 1.359375,-0.328125 0.6328124,-0.09961 1.3066406,-0.152344 2.0273437,-0.152344 z m 0,0"
       style="fill:#000000;fill-opacity:1;fill-rule:nonzero;stroke:none"
       aria-label="a"
       transform="matrix(1.3333333,0,0,1.3333333,1706.2299,366.59633)" />
    <path
       id="path223"
       d="m 558,316.2 h 27 v 0 h 19.2"
       style="fill:none;stroke:#000000;stroke-width:1.4433;stroke-linecap:butt;stroke-linejoin:round;stroke-miterlimit:10;stroke-dasharray:none;stroke-opacity:1"
       transform="matrix(1.3333333,0,0,-1.3333333,1078.2299,793.66299)" />
    <path
       id="path224"
       d="m 612,316.2 -8.5,5.3 v -10.6 z"
       style="fill:#000000;fill-opacity:1;fill-rule:evenodd;stroke:none"
       transform="matrix(1.3333333,0,0,-1.3333333,1078.2299,793.66299)" />
    <path
       id="path225"
       d="M 2.5664063,9.98093e-4 V -10.534158 c 1.6318359,-0.5625 3.2812499,-0.84375 4.9453124,-0.84375 0.5156251,0 1.0019532,0.02051 1.4648438,0.05859 0.4599609,0.04101 0.9726563,0.125976 1.5351565,0.257812 l -0.363281,1.7460938 C 9.6386719,-9.4560332 9.1875,-9.5439238 8.7890625,-9.5849394 c -0.3925781,-0.038086 -0.8173828,-0.058594 -1.2773438,-0.058594 -0.9785156,0 -1.96875,0.1376954 -2.9765625,0.4101563 V 9.98093e-4 Z m 0,0"
       style="fill:#000000;fill-opacity:1;fill-rule:nonzero;stroke:none"
       aria-label="r"
       transform="matrix(1.3333333,0,0,1.3333333,1850.2299,366.59633)" />
    <path
       id="path226"
       d="m 666,316.2 h 18 v 0 h 28.2"
       style="fill:none;stroke:#000000;stroke-width:1.4433;stroke-linecap:butt;stroke-linejoin:round;stroke-miterlimit:10;stroke-dasharray:none;stroke-opacity:1"
       transform="matrix(1.3333333,0,0,-1.3333333,1078.2299,793.66299)" />
    <path
       id="path227"
       d="m 720,316.2 -8.5,5.3 v -10.6 z"
       style="fill:#000000;fill-opacity:1;fill-rule:evenodd;stroke:none"
       transform="matrix(1.3333333,0,0,-1.3333333,1078.2299,793.66299)" />
    <path
       id="path228"
       d="m 8.4257813,-2.7880644 c 0,-0.3984375 -0.1640625,-0.7207031 -0.4921876,-0.9726563 C 7.6054687,-4.0185332 7.1953125,-4.2411894 6.703125,-4.4286894 6.2167969,-4.6220488 5.6865234,-4.8154082 5.109375,-5.0029082 4.5292969,-5.1904082 3.9990234,-5.4159941 3.515625,-5.6825957 3.0292969,-5.9550566 2.625,-6.2919707 2.296875,-6.6904082 1.96875,-7.094705 1.8046875,-7.6191191 1.8046875,-8.2607207 c 0,-0.890625 0.3632813,-1.6347656 1.0898438,-2.2382813 0.7265625,-0.600586 1.8662109,-0.902344 3.4218749,-0.902344 0.600586,0 1.2246094,0.04687 1.8750001,0.140625 0.6474609,0.08789 1.2070312,0.199219 1.6757812,0.339844 L 9.5039063,-9.1396269 C 9.3779297,-9.2011503 9.2021484,-9.2685332 8.9765625,-9.3388457 8.7480469,-9.4150175 8.4902344,-9.4824003 8.203125,-9.5380644 c -0.28125,-0.052734 -0.5859375,-0.09668 -0.9140625,-0.1289063 -0.328125,-0.029297 -0.6445313,-0.046875 -0.9492188,-0.046875 -1.734375,0 -2.6015624,0.46875 -2.6015624,1.40625 0,0.3369141 0.1640625,0.6210938 0.4921874,0.8554688 0.328125,0.234375 0.7382813,0.4511719 1.2304688,0.6445312 0.4980469,0.1875 1.0371094,0.3837891 1.6171875,0.5859375 0.5771484,0.1962891 1.1132813,0.4394532 1.6054688,0.7265625 0.4980468,0.2900391 0.9140625,0.6386719 1.2421875,1.0429688 0.3281247,0.4072266 0.4921877,0.9228516 0.4921877,1.546875 0,1.0078125 -0.395508,1.7900391 -1.183594,2.34374999 -0.7822266,0.55664063 -2.0214844,0.83203125 -3.7148438,0.83203125 -0.7675781,0 -1.4707031,-0.0673828 -2.1093749,-0.19921875 C 2.7685547,-0.05173628 2.1591797,-0.24509566 1.5820312,-0.50290816 L 1.96875,-2.3075957 c 0.5625,0.2578125 1.1484375,0.4746094 1.7578125,0.6445313 0.6152344,0.1640625 1.2773437,0.2460937 1.9804687,0.2460937 1.8105469,0 2.7187501,-0.4570312 2.7187501,-1.3710937 z m 0,0"
       style="fill:#000000;fill-opacity:1;fill-rule:nonzero;stroke:none"
       aria-label="s"
       transform="matrix(1.3333333,0,0,1.3333333,1994.2299,366.59633)" />
    <path
       id="path229"
       d="m 531,469.2 c 15.3,0 27,-11.7 27,-27 0,-15.3 -11.7,-27 -27,-27 -15.3,0 -27,11.7 -27,27 0,15.3 11.7,27 27,27 z m -27,0 z m 54,-54 z"
       style="fill:#e6e6e6;fill-opacity:1;fill-rule:evenodd;stroke:none"
       transform="matrix(1.3333333,0,0,-1.3333333,1078.2299,793.66299)" />
    <path
       id="path230"
       d="m 531,469.2 c 15.3,0 27,-11.7 27,-27 0,-15.3 -11.7,-27 -27,-27 -15.3,0 -27,11.7 -27,27 0,15.3 11.7,27 27,27 z"
       style="fill:none;stroke:#000000;stroke-width:1.4433;stroke-linecap:butt;stroke-linejoin:round;stroke-miterlimit:10;stroke-dasharray:none;stroke-opacity:1"
       transform="matrix(1.3333333,0,0,-1.3333333,1078.2299,793.66299)" />
    <path
       id="path231"
       d="M 504,469.2 Z"
       style="fill:none;stroke:#000000;stroke-width:1.4433;stroke-linecap:butt;stroke-linejoin:round;stroke-miterlimit:10;stroke-dasharray:none;stroke-opacity:1"
       transform="matrix(1.3333333,0,0,-1.3333333,1078.2299,793.66299)" />
    <path
       id="path232"
       d="M 558,415.2 Z"
       style="fill:none;stroke:#000000;stroke-width:1.4433;stroke-linecap:butt;stroke-linejoin:round;stroke-miterlimit:10;stroke-dasharray:none;stroke-opacity:1"
       transform="matrix(1.3333333,0,0,-1.3333333,1078.2299,793.66299)" />
    <path
       id="path233"
       d="m 639,469.2 c 15.3,0 27,-11.7 27,-27 0,-15.3 -11.7,-27 -27,-27 -15.3,0 -27,11.7 -27,27 0,15.3 11.7,27 27,27 z m -27,0 z m 54,-54 z"
       style="fill:#e6e6e6;fill-opacity:1;fill-rule:evenodd;stroke:none"
       transform="matrix(1.3333333,0,0,-1.3333333,1078.2299,793.66299)" />
    <path
       id="path234"
       d="m 639,469.2 c 15.3,0 27,-11.7 27,-27 0,-15.3 -11.7,-27 -27,-27 -15.3,0 -27,11.7 -27,27 0,15.3 11.7,27 27,27 z"
       style="fill:none;stroke:#000000;stroke-width:1.4433;stroke-linecap:butt;stroke-linejoin:round;stroke-miterlimit:10;stroke-dasharray:none;stroke-opacity:1"
       transform="matrix(1.3333333,0,0,-1.3333333,1078.2299,793.66299)" />
    <path
       id="path235"
       d="M 612,469.2 Z"
       style="fill:none;stroke:#000000;stroke-width:1.4433;stroke-linecap:butt;stroke-linejoin:round;stroke-miterlimit:10;stroke-dasharray:none;stroke-opacity:1"
       transform="matrix(1.3333333,0,0,-1.3333333,1078.2299,793.66299)" />
    <path
       id="path236"
       d="M 666,415.2 Z"
       style="fill:none;stroke:#000000;stroke-width:1.4433;stroke-linecap:butt;stroke-linejoin:round;stroke-miterlimit:10;stroke-dasharray:none;stroke-opacity:1"
       transform="matrix(1.3333333,0,0,-1.3333333,1078.2299,793.66299)" />
    <path
       id="path237"
       d="m 558,442.2 h 27 v 0 h 19.2"
       style="fill:none;stroke:#000000;stroke-width:1.4433;stroke-linecap:butt;stroke-linejoin:round;stroke-miterlimit:10;stroke-dasharray:none;stroke-opacity:1"
       transform="matrix(1.3333333,0,0,-1.3333333,1078.2299,793.66299)" />
    <path
       id="path238"
       d="m 612,442.2 -8.5,5.3 v -10.6 z"
       style="fill:#000000;fill-opacity:1;fill-rule:evenodd;stroke:none"
       transform="matrix(1.3333333,0,0,-1.3333333,1078.2299,793.66299)" />
    <path
       id="path239"
       d="m 5.8359375,-11.131814 h 4.6992185 v 1.6523433 H 5.8359375 v 5.1796875 c 0,0.5625 0.038086,1.0195313 0.1171875,1.3710938 0.076172,0.3515625 0.2050781,0.6386719 0.3867187,0.8554687 0.1875,0.2109375 0.4248047,0.3603516 0.7148438,0.4453125 0.2871094,0.079102 0.6386719,0.1171875 1.0546875,0.1171875 0.5771484,0 1.0429688,-0.046875 1.3945313,-0.140625 0.3515625,-0.099609 0.6855467,-0.2285156 1.0078127,-0.3867187 l 0.292969,1.67578124 C 10.576172,-0.25974409 10.21875,-0.13083784 9.7265625,0.02443559 9.2402344,0.18849809 8.6396484,0.27052934 7.921875,0.27052934 c -0.8378906,0 -1.5205078,-0.0996094 -2.0507813,-0.29296875 C 5.3466797,-0.21579878 4.9365234,-0.50583784 4.640625,-0.88962691 4.3417969,-1.2704863 4.1396484,-1.7450957 4.03125,-2.3075957 3.9199219,-2.875955 3.8671875,-3.5409941 3.8671875,-4.2997832 V -9.4794707 H 1.5117187 v -1.6523433 h 2.3554688 v -3.128907 l 1.96875,-0.328125 z m 0,0"
       style="fill:#000000;fill-opacity:1;fill-rule:nonzero;stroke:none"
       aria-label="t"
       transform="matrix(1.3333333,0,0,1.3333333,1850.2299,198.59633)" />
    <path
       id="path240"
       d="m 450,442.2 h 46.2"
       style="fill:none;stroke:#000000;stroke-width:1.4433;stroke-linecap:butt;stroke-linejoin:round;stroke-miterlimit:10;stroke-dasharray:none;stroke-opacity:1"
       transform="matrix(1.3333333,0,0,-1.3333333,1078.2299,793.66299)" />
    <path
       id="path241"
       d="m 504,442.2 -8.5,5.3 v -10.6 z"
       style="fill:#000000;fill-opacity:1;fill-rule:evenodd;stroke:none"
       transform="matrix(1.3333333,0,0,-1.3333333,1078.2299,793.66299)" />
    <path
       id="path242"
       d="M 2.5664063,9.98093e-4 V -10.534158 c 1.6318359,-0.5625 3.2812499,-0.84375 4.9453124,-0.84375 0.5156251,0 1.0019532,0.02051 1.4648438,0.05859 0.4599609,0.04101 0.9726563,0.125976 1.5351565,0.257812 l -0.363281,1.7460938 C 9.6386719,-9.4560332 9.1875,-9.5439238 8.7890625,-9.5849394 c -0.3925781,-0.038086 -0.8173828,-0.058594 -1.2773438,-0.058594 -0.9785156,0 -1.96875,0.1376954 -2.9765625,0.4101563 V 9.98093e-4 Z m 0,0"
       style="fill:#000000;fill-opacity:1;fill-rule:nonzero;stroke:none"
       aria-label="r"
       transform="matrix(1.3333333,0,0,1.3333333,1706.2299,198.59633)" />
    <path
       id="path243"
       d="m 423,217.2 c 15.3,0 27,-11.7 27,-27 0,-15.3 -11.7,-27 -27,-27 -15.3,0 -27,11.7 -27,27 0,15.3 11.7,27 27,27 z m -27,0 z m 54,-54 z"
       style="fill:#e6e6e6;fill-opacity:1;fill-rule:evenodd;stroke:none"
       transform="matrix(1.3333333,0,0,-1.3333333,1078.2299,793.66299)" />
    <path
       id="path244"
       d="m 423,217.2 c 15.3,0 27,-11.7 27,-27 0,-15.3 -11.7,-27 -27,-27 -15.3,0 -27,11.7 -27,27 0,15.3 11.7,27 27,27 z"
       style="fill:none;stroke:#000000;stroke-width:1.4433;stroke-linecap:butt;stroke-linejoin:round;stroke-miterlimit:10;stroke-dasharray:none;stroke-opacity:1"
       transform="matrix(1.3333333,0,0,-1.3333333,1078.2299,793.66299)" />
    <path
       id="path245"
       d="M 396,217.2 Z"
       style="fill:none;stroke:#000000;stroke-width:1.4433;stroke-linecap:butt;stroke-linejoin:round;stroke-miterlimit:10;stroke-dasharray:none;stroke-opacity:1"
       transform="matrix(1.3333333,0,0,-1.3333333,1078.2299,793.66299)" />
    <path
       id="path246"
       d="M 450,163.2 Z"
       style="fill:none;stroke:#000000;stroke-width:1.4433;stroke-linecap:butt;stroke-linejoin:round;stroke-miterlimit:10;stroke-dasharray:none;stroke-opacity:1"
       transform="matrix(1.3333333,0,0,-1.3333333,1078.2299,793.66299)" />
    <path
       id="path247"
       d="M 295.9,297.1 V 190.2 h 92.3"
       style="fill:none;stroke:#000000;stroke-width:1.4433;stroke-linecap:butt;stroke-linejoin:round;stroke-miterlimit:10;stroke-dasharray:none;stroke-opacity:1"
       transform="matrix(1.3333333,0,0,-1.3333333,1078.2299,793.66299)" />
    <path
       id="path248"
       d="m 396,190.2 -8.5,5.3 v -10.6 z"
       style="fill:#000000;fill-opacity:1;fill-rule:evenodd;stroke:none"
       transform="matrix(1.3333333,0,0,-1.3333333,1078.2299,793.66299)" />
    <path
       id="path249"
       d="m 8.4248047,-2.7904082 c 0,-0.3984375 -0.1640625,-0.7207031 -0.4921875,-0.9726562 -0.328125,-0.2578125 -0.7382813,-0.4804688 -1.2304688,-0.6679688 -0.4863281,-0.1933593 -1.0166015,-0.3867187 -1.59375,-0.5742187 -0.5800781,-0.1875 -1.1103515,-0.4130859 -1.59375,-0.6796875 -0.4863281,-0.2724609 -0.890625,-0.609375 -1.21875,-1.0078125 -0.328125,-0.4042969 -0.4921875,-0.9287109 -0.4921875,-1.5703125 0,-0.890625 0.3632813,-1.6347656 1.0898438,-2.2382816 0.7265625,-0.600586 1.8662109,-0.902343 3.421875,-0.902343 0.6005859,0 1.2246094,0.04687 1.875,0.140625 0.6474609,0.08789 1.2070312,0.199218 1.6757812,0.339843 L 9.5029297,-9.1419707 C 9.3769531,-9.2034941 9.2011719,-9.2708769 8.9755859,-9.3411894 8.7470703,-9.4173613 8.4892578,-9.4847441 8.2021484,-9.5404082 c -0.28125,-0.052734 -0.5859375,-0.09668 -0.9140625,-0.1289062 -0.328125,-0.029297 -0.6445312,-0.046875 -0.9492187,-0.046875 -1.734375,0 -2.6015625,0.46875 -2.6015625,1.40625 0,0.3369141 0.1640625,0.6210937 0.4921875,0.8554687 0.328125,0.234375 0.7382812,0.4511719 1.2304687,0.6445313 0.4980469,0.1875 1.0371094,0.3837891 1.6171875,0.5859375 0.5771485,0.1962891 1.1132813,0.4394531 1.6054688,0.7265625 0.4980469,0.2900391 0.9140625,0.6386719 1.2421875,1.0429687 0.3281253,0.4072266 0.4921873,0.9228516 0.4921873,1.546875 0,1.0078125 -0.395508,1.7900391 -1.1835936,2.34375004 -0.7822265,0.55664063 -2.0214843,0.83203125 -3.7148437,0.83203125 -0.7675781,0 -1.4707031,-0.0673828 -2.109375,-0.19921875 C 2.7675781,-0.05408003 2.1582031,-0.24743941 1.5810547,-0.50525191 L 1.9677734,-2.3099394 c 0.5625,0.2578125 1.1484375,0.4746094 1.7578125,0.6445312 0.6152344,0.1640625 1.2773438,0.2460938 1.9804688,0.2460938 1.8105469,0 2.71875,-0.4570313 2.71875,-1.3710938 z m 0,0"
       style="fill:#000000;fill-opacity:1;fill-rule:nonzero;stroke:none"
       aria-label="s"
       transform="matrix(1.3333333,0,0,1.3333333,1531.5633,527.39633)" />
    <path
       id="path250"
       d="m 531,217.2 c 15.3,0 27,-11.7 27,-27 0,-15.3 -11.7,-27 -27,-27 -15.3,0 -27,11.7 -27,27 0,15.3 11.7,27 27,27 z m -27,0 z m 54,-54 z"
       style="fill:#e6e6e6;fill-opacity:1;fill-rule:evenodd;stroke:none"
       transform="matrix(1.3333333,0,0,-1.3333333,1078.2299,793.66299)" />
    <path
       id="path251"
       d="m 531,217.2 c 15.3,0 27,-11.7 27,-27 0,-15.3 -11.7,-27 -27,-27 -15.3,0 -27,11.7 -27,27 0,15.3 11.7,27 27,27 z"
       style="fill:none;stroke:#000000;stroke-width:1.4433;stroke-linecap:butt;stroke-linejoin:round;stroke-miterlimit:10;stroke-dasharray:none;stroke-opacity:1"
       transform="matrix(1.3333333,0,0,-1.3333333,1078.2299,793.66299)" />
    <path
       id="path252"
       d="M 504,217.2 Z"
       style="fill:none;stroke:#000000;stroke-width:1.4433;stroke-linecap:butt;stroke-linejoin:round;stroke-miterlimit:10;stroke-dasharray:none;stroke-opacity:1"
       transform="matrix(1.3333333,0,0,-1.3333333,1078.2299,793.66299)" />
    <path
       id="path253"
       d="M 558,163.2 Z"
       style="fill:none;stroke:#000000;stroke-width:1.4433;stroke-linecap:butt;stroke-linejoin:round;stroke-miterlimit:10;stroke-dasharray:none;stroke-opacity:1"
       transform="matrix(1.3333333,0,0,-1.3333333,1078.2299,793.66299)" />
    <path
       id="path254"
       d="m 450,190.2 h 46.2"
       style="fill:none;stroke:#000000;stroke-width:1.4433;stroke-linecap:butt;stroke-linejoin:round;stroke-miterlimit:10;stroke-dasharray:none;stroke-opacity:1"
       transform="matrix(1.3333333,0,0,-1.3333333,1078.2299,793.66299)" />
    <path
       id="path255"
       d="m 504,190.2 -8.5,5.3 v -10.6 z"
       style="fill:#000000;fill-opacity:1;fill-rule:evenodd;stroke:none"
       transform="matrix(1.3333333,0,0,-1.3333333,1078.2299,793.66299)" />
    <path
       id="path256"
       d="m 11.039063,-5.5654082 c 0,0.8847657 -0.125977,1.6816407 -0.375,2.390625 -0.243165,0.7119141 -0.591797,1.3242188 -1.0429692,1.8398438 -0.4453125,0.50976562 -0.9814454,0.90234374 -1.6054688,1.18359374 -0.6269531,0.28125 -1.3066406,0.421875 -2.0390625,0.421875 -0.7207031,0 -1.3886719,-0.140625 -2.0039062,-0.421875 C 3.3544922,-0.43259566 2.8183594,-0.82517378 2.3671875,-1.3349394 1.921875,-1.8505644 1.5732422,-2.4628691 1.3242187,-3.1747832 1.0810547,-3.8837675 0.9609375,-4.6806425 0.9609375,-5.5654082 c 0,-0.8818359 0.1201172,-1.6816406 0.3632812,-2.4023437 0.2490235,-0.7177734 0.5976563,-1.3271484 1.0429688,-1.828125 0.4511719,-0.5068361 0.9873047,-0.9023441 1.6054688,-1.1835941 0.6152343,-0.28125 1.2832031,-0.421875 2.0039062,-0.421875 0.7324219,0 1.4121094,0.140625 2.0390625,0.421875 0.6240234,0.28125 1.1601563,0.676758 1.6054688,1.1835941 0.4511722,0.5009766 0.7998042,1.1103516 1.0429692,1.828125 0.249023,0.7207031 0.375,1.5205078 0.375,2.4023437 z m -2.039063,0 C 9,-6.8310332 8.7246094,-7.8271269 8.1796875,-8.5536894 7.640625,-9.2802519 6.9052734,-9.6435332 5.9765625,-9.6435332 c -0.9140625,0 -1.640625,0.3632813 -2.1796875,1.0898438 C 3.2636719,-7.8271269 3,-6.8310332 3,-5.5654082 c 0,1.2509766 0.2636719,2.2382813 0.796875,2.9648438 0.5390625,0.7265625 1.265625,1.0898437 2.1796875,1.0898437 0.9287109,0 1.6640625,-0.3632812 2.203125,-1.0898437 C 8.7246094,-3.3271269 9,-4.3144316 9,-5.5654082 Z m 0,0"
       style="fill:#000000;fill-opacity:1;fill-rule:nonzero;stroke:none"
       aria-label="o"
       transform="matrix(1.3333333,0,0,1.3333333,1706.2299,534.59633)" />
    <path
       id="path257"
       d="m 639,217.2 c 15.3,0 27,-11.7 27,-27 0,-15.3 -11.7,-27 -27,-27 -15.3,0 -27,11.7 -27,27 0,15.3 11.7,27 27,27 z m -27,0 z m 54,-54 z"
       style="fill:#e6e6e6;fill-opacity:1;fill-rule:evenodd;stroke:none"
       transform="matrix(1.3333333,0,0,-1.3333333,1078.2299,793.66299)" />
    <path
       id="path258"
       d="m 639,217.2 c 15.3,0 27,-11.7 27,-27 0,-15.3 -11.7,-27 -27,-27 -15.3,0 -27,11.7 -27,27 0,15.3 11.7,27 27,27 z"
       style="fill:none;stroke:#000000;stroke-width:1.4433;stroke-linecap:butt;stroke-linejoin:round;stroke-miterlimit:10;stroke-dasharray:none;stroke-opacity:1"
       transform="matrix(1.3333333,0,0,-1.3333333,1078.2299,793.66299)" />
    <path
       id="path259"
       d="M 612,217.2 Z"
       style="fill:none;stroke:#000000;stroke-width:1.4433;stroke-linecap:butt;stroke-linejoin:round;stroke-miterlimit:10;stroke-dasharray:none;stroke-opacity:1"
       transform="matrix(1.3333333,0,0,-1.3333333,1078.2299,793.66299)" />
    <path
       id="path260"
       d="M 666,163.2 Z"
       style="fill:none;stroke:#000000;stroke-width:1.4433;stroke-linecap:butt;stroke-linejoin:round;stroke-miterlimit:10;stroke-dasharray:none;stroke-opacity:1"
       transform="matrix(1.3333333,0,0,-1.3333333,1078.2299,793.66299)" />
    <path
       id="path261"
       d="m 747,217.2 c 15.3,0 27,-11.7 27,-27 0,-15.3 -11.7,-27 -27,-27 -15.3,0 -27,11.7 -27,27 0,15.3 11.7,27 27,27 z m -27,0 z m 54,-54 z"
       style="fill:#e6e6e6;fill-opacity:1;fill-rule:evenodd;stroke:none"
       transform="matrix(1.3333333,0,0,-1.3333333,1078.2299,793.66299)" />
    <path
       id="path262"
       d="m 747,217.2 c 15.3,0 27,-11.7 27,-27 0,-15.3 -11.7,-27 -27,-27 -15.3,0 -27,11.7 -27,27 0,15.3 11.7,27 27,27 z"
       style="fill:none;stroke:#000000;stroke-width:1.4433;stroke-linecap:butt;stroke-linejoin:round;stroke-miterlimit:10;stroke-dasharray:none;stroke-opacity:1"
       transform="matrix(1.3333333,0,0,-1.3333333,1078.2299,793.66299)" />
    <path
       id="path263"
       d="M 720,217.2 Z"
       style="fill:none;stroke:#000000;stroke-width:1.4433;stroke-linecap:butt;stroke-linejoin:round;stroke-miterlimit:10;stroke-dasharray:none;stroke-opacity:1"
       transform="matrix(1.3333333,0,0,-1.3333333,1078.2299,793.66299)" />
    <path
       id="path264"
       d="M 774,163.2 Z"
       style="fill:none;stroke:#000000;stroke-width:1.4433;stroke-linecap:butt;stroke-linejoin:round;stroke-miterlimit:10;stroke-dasharray:none;stroke-opacity:1"
       transform="matrix(1.3333333,0,0,-1.3333333,1078.2299,793.66299)" />
    <path
       id="path265"
       d="m 558,190.2 h 46.2"
       style="fill:none;stroke:#000000;stroke-width:1.4433;stroke-linecap:butt;stroke-linejoin:round;stroke-miterlimit:10;stroke-dasharray:none;stroke-opacity:1"
       transform="matrix(1.3333333,0,0,-1.3333333,1078.2299,793.66299)" />
    <path
       id="path266"
       d="m 612,190.2 -8.5,5.3 v -10.6 z"
       style="fill:#000000;fill-opacity:1;fill-rule:evenodd;stroke:none"
       transform="matrix(1.3333333,0,0,-1.3333333,1078.2299,793.66299)" />
    <path
       id="path267"
       d="m 6.1171875,-1.4169707 c 0.4980469,0 0.9433594,-0.014648 1.3359375,-0.046875 0.3896484,-0.029297 0.7148438,-0.070312 0.9726563,-0.1171875 V -4.8974394 C 8.1679688,-4.9736113 7.8574219,-5.0380644 7.5,-5.0849394 c -0.3603516,-0.046875 -0.7382813,-0.070312 -1.1367188,-0.070312 -0.3691406,0 -0.7265625,0.029297 -1.078125,0.082031 -0.3515625,0.055664 -0.665039,0.1582032 -0.9375,0.3046875 -0.2753906,0.140625 -0.5009765,0.328125 -0.6796874,0.5625 -0.1728516,0.2285157 -0.2578125,0.515625 -0.2578125,0.8671875 0,0.7207032 0.2402343,1.21875 0.7265624,1.5 0.4921875,0.28125 1.1513672,0.421875 1.9804688,0.4218747 z m -0.1875,-9.9843753 c 0.8261719,0 1.5263672,0.105469 2.0976563,0.316407 0.5683593,0.205078 1.03125,0.492187 1.3828125,0.867187 0.3515625,0.3691407 0.5976567,0.8173829 0.7382817,1.3476563 0.146484,0.5244141 0.222656,1.0986329 0.222656,1.7226563 v 6.96093749 c -0.4687502,0.0791016 -1.0839846,0.17285157 -1.839844,0.28125 -0.7587891,0.1171875 -1.5410156,0.17578125 -2.34375,0.17578125 -0.6035156,0 -1.1923828,-0.0556641 -1.7695313,-0.1640625 C 3.8378906,0.00392778 3.3222656,-0.17771284 2.8710938,-0.44431441 2.4257813,-0.70798628 2.0654297,-1.0712675 1.7929687,-1.5341582 1.5263672,-1.9941191 1.3945312,-2.5888457 1.3945312,-3.3154082 c 0,-0.6386718 0.1347657,-1.1777343 0.4101563,-1.6171875 0.28125,-0.4365234 0.6386719,-0.7910156 1.078125,-1.0664062 0.4453125,-0.2724609 0.9521484,-0.46875 1.5234375,-0.5859375 0.5683594,-0.1230469 1.1396484,-0.1875 1.7109375,-0.1875 0.7880859,0 1.5585937,0.09082 2.3085938,0.2695312 v -0.5507812 c 0,-0.3339844 -0.041016,-0.6591797 -0.1171875,-0.9726563 C 8.2382813,-8.3368925 8.1005859,-8.6240019 7.8984375,-8.8818144 7.7021484,-9.1396269 7.4326172,-9.3417753 7.0898437,-9.4911894 6.7441406,-9.6376738 6.3046875,-9.7138457 5.765625,-9.7138457 c -0.6972656,0 -1.3007813,0.046875 -1.8164062,0.140625 -0.5097657,0.09375 -0.8964844,0.1875 -1.1601563,0.28125 L 2.5429688,-10.920877 c 0.2724609,-0.123047 0.7265625,-0.234375 1.359375,-0.328125 0.6328124,-0.09961 1.3066406,-0.152344 2.0273437,-0.152344 z m 0,0"
       style="fill:#000000;fill-opacity:1;fill-rule:nonzero;stroke:none"
       aria-label="a"
       transform="matrix(1.3333333,0,0,1.3333333,1850.2299,534.59633)" />
    <path
       id="path268"
       d="M 54,433.2 H 36 v 36 h 36 v -36 z"
       style="fill:#99ccff;fill-opacity:1;fill-rule:evenodd;stroke:#000000;stroke-width:1;stroke-linecap:butt;stroke-linejoin:round;stroke-miterlimit:10;stroke-dasharray:none;stroke-opacity:1"
       transform="matrix(1.3333333,0,0,-1.3333333,1078.2299,793.66299)" />
    <path
       id="path269"
       d="m 12.879883,-6.4933378 c 0,1.0253906 -0.146485,1.9541015 -0.433594,2.7890625 -0.290039,0.8291015 -0.697266,1.5439453 -1.21875,2.1445312 -0.524414,0.59472657 -1.148437,1.05468751 -1.8749999,1.38281251 -0.7265625,0.31933593 -1.5205079,0.48046875 -2.3789063,0.48046875 -0.84375,0 -1.6259766,-0.16113282 -2.34375,-0.48046875 C 3.9091797,-0.50505659 3.2880859,-0.96501753 2.7666016,-1.5597441 2.2509766,-2.16033 1.8466797,-2.8751738 1.5595703,-3.7042753 1.2695312,-4.5392363 1.1259766,-5.4679472 1.1259766,-6.4933378 c 0,-1.03125 0.1435546,-1.9628907 0.4335937,-2.8007813 0.2871094,-0.8437499 0.6914063,-1.5585939 1.2070313,-2.1445309 0.5214843,-0.585938 1.1425781,-1.042969 1.8632812,-1.371094 0.7177734,-0.328125 1.5,-0.492188 2.34375,-0.492188 0.8583984,0 1.6523438,0.164063 2.3789063,0.492188 0.7265629,0.328125 1.3505859,0.785156 1.8749999,1.371094 0.521484,0.585937 0.928711,1.300781 1.21875,2.1445309 0.287109,0.8378906 0.433594,1.7695313 0.433594,2.8007813 z m -2.378906,0 c 0,-1.4765625 -0.322266,-2.6367188 -0.9609379,-3.4804688 C 8.9072266,-10.823416 8.0517578,-11.25115 6.9736328,-11.25115 c -1.0634766,0 -1.9072266,0.427734 -2.53125,1.2773434 -0.6269531,0.84375 -0.9375,2.0039063 -0.9375,3.4804688 0,1.453125 0.3105469,2.6074218 0.9375,3.4570312 0.6240234,0.84375 1.4677734,1.265625 2.53125,1.265625 1.078125,0 1.9335938,-0.421875 2.5664063,-1.265625 0.6386719,-0.8496094 0.9609379,-2.0039062 0.9609379,-3.4570312 z m 0,0"
       style="fill:#000000;fill-opacity:1;fill-rule:nonzero;stroke:none"
       aria-label="o"
       transform="matrix(1.3333333,0,0,1.3333333,1140.8966,204.32966)" />
    <path
       id="path270"
       d="M 90,433.2 H 72 v 36 h 36 v -36 z"
       style="fill:#99ccff;fill-opacity:1;fill-rule:evenodd;stroke:#000000;stroke-width:1;stroke-linecap:butt;stroke-linejoin:round;stroke-miterlimit:10;stroke-dasharray:none;stroke-opacity:1"
       transform="matrix(1.3333333,0,0,-1.3333333,1078.2299,793.66299)" />
    <path
       id="path271"
       d="m 7.1376953,-1.6534941 c 0.5771484,0 1.0927735,-0.017578 1.546875,-0.058594 0.459961,-0.038086 0.84375,-0.084961 1.1484375,-0.140625 v -3.8554688 c -0.3046875,-0.09375 -0.6679687,-0.1669922 -1.0898437,-0.2226562 -0.4160157,-0.061523 -0.8554688,-0.09375 -1.3242188,-0.09375 -0.4306641,0 -0.8525391,0.035156 -1.265625,0.1054687 -0.4072266,0.064453 -0.7705078,0.1816406 -1.0898437,0.3515625 -0.3134766,0.1640625 -0.5742188,0.3837891 -0.7851563,0.65625 -0.2050781,0.2666016 -0.3046875,0.6064453 -0.3046875,1.0195313 0,0.8378906 0.2841797,1.4179687 0.8554688,1.7460937 0.5683593,0.328125 1.3388671,0.4921875 2.3085937,0.4921878 z M 6.9150391,-13.301932 c 0.9667968,0 1.7841797,0.123047 2.4492187,0.363282 0.6621092,0.243164 1.1982422,0.580078 1.6054692,1.007812 0.413086,0.430664 0.703125,0.955078 0.867187,1.570313 0.169922,0.6181637 0.257813,1.2890622 0.257813,2.0156247 v 8.12109371 c -0.539063,0.09375 -1.253907,0.20507812 -2.1445317,0.328125 -0.8847656,0.13183593 -1.7929687,0.19921875 -2.7304687,0.19921875 -0.703125,0 -1.3916016,-0.0644531 -2.0625,-0.1875 -0.6738282,-0.1171875 -1.2714844,-0.328125 -1.7929688,-0.6328125 -0.524414,-0.31054688 -0.946289,-0.73828126 -1.265625,-1.27734376 -0.3134766,-0.5390625 -0.46875,-1.2304687 -0.46875,-2.0742187 0,-0.741211 0.1582031,-1.3710938 0.4804688,-1.8867188 0.328125,-0.515625 0.75,-0.9287109 1.265625,-1.2421875 0.515625,-0.3193359 1.1015625,-0.5507812 1.7578125,-0.6914062 0.6621093,-0.140625 1.3300781,-0.2109375 2.0039062,-0.2109375 0.9140625,0 1.8105469,0.1054687 2.6953125,0.3164062 v -0.6445312 c 0,-0.3984375 -0.043945,-0.7763672 -0.1289062,-1.1367188 C 9.6162109,-9.7306425 9.4580078,-10.061697 9.2236328,-10.360525 8.9892578,-10.656424 8.6728516,-10.893728 8.2744141,-11.075369 7.8759766,-11.25408 7.3544922,-11.3449 6.7158203,-11.3449 c -0.796875,0 -1.4970703,0.05859 -2.0976562,0.175781 -0.5947266,0.111328 -1.0517578,0.219726 -1.3710938,0.328125 l -0.28125,-1.898438 c 0.319336,-0.146484 0.8466797,-0.27539 1.5820313,-0.386718 0.7412109,-0.117188 1.5292968,-0.175782 2.3671875,-0.175782 z m 0,0"
       style="fill:#000000;fill-opacity:1;fill-rule:nonzero;stroke:none"
       aria-label="a"
       transform="matrix(1.3333333,0,0,1.3333333,1188.8966,204.32966)" />
    <path
       id="path272"
       d="m 126,433.2 h -18 v 36 h 36 v -36 z"
       style="fill:#99ccff;fill-opacity:1;fill-rule:evenodd;stroke:#000000;stroke-width:1;stroke-linecap:butt;stroke-linejoin:round;stroke-miterlimit:10;stroke-dasharray:none;stroke-opacity:1"
       transform="matrix(1.3333333,0,0,-1.3333333,1078.2299,793.66299)" />
    <path
       id="path273"
       d="M 3.0009766,-0.00115034 V -12.294119 c 1.8984375,-0.647461 3.8203125,-0.972656 5.765625,-0.972656 0.5917968,0 1.1601562,0.02344 1.6992184,0.07031 0.544922,0.04687 1.142578,0.146485 1.792969,0.292969 l -0.410156,2.039062 c -0.603516,-0.164062 -1.133789,-0.269531 -1.59375,-0.316406 -0.4541017,-0.04687 -0.9492189,-0.07031 -1.4882814,-0.07031 -1.1425782,0 -2.296875,0.158203 -3.46875,0.46875 v 10.78124966 z m 0,0"
       style="fill:#000000;fill-opacity:1;fill-rule:nonzero;stroke:none"
       aria-label="r"
       transform="matrix(1.3333333,0,0,1.3333333,1236.8966,204.32966)" />
    <path
       id="path274"
       d="m 162,433.2 h -18 v 36 h 36 v -36 z"
       style="fill:#99ccff;fill-opacity:1;fill-rule:evenodd;stroke:#000000;stroke-width:1;stroke-linecap:butt;stroke-linejoin:round;stroke-miterlimit:10;stroke-dasharray:none;stroke-opacity:1"
       transform="matrix(1.3333333,0,0,-1.3333333,1078.2299,793.66299)" />
    <path
       id="path275"
       d="m 9.8330078,-3.2472441 c 0,-0.46875 -0.1933594,-0.8496094 -0.5742187,-1.1484375 C 8.875,-4.69158 8.3974609,-4.9523222 7.8291016,-5.1808378 7.2578125,-5.4064238 6.6367187,-5.6261503 5.9658203,-5.8370878 5.2919922,-6.0538847 4.6708984,-6.3204863 4.1025391,-6.6339628 3.53125,-6.9532988 3.0537109,-7.3429472 2.6728516,-7.8058378 c -0.3837891,-0.46875 -0.5742188,-1.078125 -0.5742188,-1.828125 0,-1.0458982 0.4248047,-1.9160152 1.2773438,-2.6132812 0.8496093,-0.703125 2.1796875,-1.054688 3.984375,-1.054688 0.7089843,0 1.4443359,0.05566 2.203125,0.164063 0.7558594,0.102539 1.4062504,0.234375 1.9453124,0.398437 l -0.421875,2.074219 c -0.149414,-0.07617 -0.357422,-0.155273 -0.621094,-0.234375 -0.257812,-0.08496 -0.5566403,-0.158203 -0.8906247,-0.222656 -0.336914,-0.07031 -0.6972656,-0.123047 -1.078125,-0.164063 -0.383789,-0.03809 -0.75,-0.05859 -1.1015625,-0.05859 -2.015625,0 -3.0234375,0.550781 -3.0234375,1.6523434 0,0.3984375 0.1904297,0.7353516 0.5742188,1.0078125 0.3808593,0.2666016 0.8613281,0.5126953 1.4414062,0.7382813 0.5771484,0.2197265 1.2011719,0.4453125 1.875,0.6796875 0.6708985,0.234375 1.2949219,0.5214843 1.8749997,0.8554687 0.577149,0.3369141 1.057618,0.7441406 1.441407,1.21875 0.380859,0.4775391 0.574218,1.078125 0.574218,1.8046875 0,1.171875 -0.457031,2.0830078 -1.371093,2.73046876 -0.9140629,0.64160156 -2.3642582,0.9609375 -4.3476567,0.9609375 -0.890625,0 -1.7109375,-0.0761719 -2.4609375,-0.22265625 C 3.2294922,-0.06560347 2.5234375,-0.28825972 1.8525391,-0.58708784 L 2.2978516,-2.6847441 c 0.65625,0.2988281 1.3388672,0.5449219 2.0507812,0.7382813 0.7177734,0.196289 1.4912109,0.2929687 2.3203125,0.2929687 2.109375,0 3.1640625,-0.5302734 3.1640625,-1.59375 z m 0,0"
       style="fill:#000000;fill-opacity:1;fill-rule:nonzero;stroke:none"
       aria-label="s"
       transform="matrix(1.3333333,0,0,1.3333333,1284.8966,204.32966)" />
    <path
       id="path276"
       d="m 666,190.2 h 46.2"
       style="fill:none;stroke:#000000;stroke-width:1.4433;stroke-linecap:butt;stroke-linejoin:round;stroke-miterlimit:10;stroke-dasharray:none;stroke-opacity:1"
       transform="matrix(1.3333333,0,0,-1.3333333,1078.2299,793.66299)" />
    <path
       id="path277"
       d="m 720,190.2 -8.5,5.3 v -10.6 z"
       style="fill:#000000;fill-opacity:1;fill-rule:evenodd;stroke:none"
       transform="matrix(1.3333333,0,0,-1.3333333,1078.2299,793.66299)" />
    <path
       id="path278"
       d="M 2.5664063,9.98093e-4 V -10.534158 c 1.6318359,-0.5625 3.2812499,-0.84375 4.9453124,-0.84375 0.5156251,0 1.0019532,0.02051 1.4648438,0.05859 0.4599609,0.04101 0.9726563,0.125976 1.5351565,0.257812 l -0.363281,1.7460938 C 9.6386719,-9.4560332 9.1875,-9.5439238 8.7890625,-9.5849394 c -0.3925781,-0.038086 -0.8173828,-0.058594 -1.2773438,-0.058594 -0.9785156,0 -1.96875,0.1376954 -2.9765625,0.4101563 V 9.98093e-4 Z m 0,0"
       style="fill:#000000;fill-opacity:1;fill-rule:nonzero;stroke:none"
       aria-label="r"
       transform="matrix(1.3333333,0,0,1.3333333,1994.2299,534.59633)" />
    <path
       id="path279"
       d="m 531,577.2 c 15.3,0 27,-11.7 27,-27 0,-15.3 -11.7,-27 -27,-27 -15.3,0 -27,11.7 -27,27 0,15.3 11.7,27 27,27 z m -27,0 z m 54,-54 z"
       style="fill:#e6e6e6;fill-opacity:1;fill-rule:evenodd;stroke:none"
       transform="matrix(1.3333333,0,0,-1.3333333,1078.2299,793.66299)" />
    <path
       id="path280"
       d="m 531,577.2 c 15.3,0 27,-11.7 27,-27 0,-15.3 -11.7,-27 -27,-27 -15.3,0 -27,11.7 -27,27 0,15.3 11.7,27 27,27 z"
       style="fill:none;stroke:#000000;stroke-width:1.4433;stroke-linecap:butt;stroke-linejoin:round;stroke-miterlimit:10;stroke-dasharray:none;stroke-opacity:1"
       transform="matrix(1.3333333,0,0,-1.3333333,1078.2299,793.66299)" />
    <path
       id="path281"
       d="M 504,577.2 Z"
       style="fill:none;stroke:#000000;stroke-width:1.4433;stroke-linecap:butt;stroke-linejoin:round;stroke-miterlimit:10;stroke-dasharray:none;stroke-opacity:1"
       transform="matrix(1.3333333,0,0,-1.3333333,1078.2299,793.66299)" />
    <path
       id="path282"
       d="M 558,523.2 Z"
       style="fill:none;stroke:#000000;stroke-width:1.4433;stroke-linecap:butt;stroke-linejoin:round;stroke-miterlimit:10;stroke-dasharray:none;stroke-opacity:1"
       transform="matrix(1.3333333,0,0,-1.3333333,1078.2299,793.66299)" />
    <path
       id="path283"
       d="m 423,469.2 v 81 h 73.2"
       style="fill:none;stroke:#000000;stroke-width:1.4433;stroke-linecap:butt;stroke-linejoin:round;stroke-miterlimit:10;stroke-dasharray:none;stroke-opacity:1"
       transform="matrix(1.3333333,0,0,-1.3333333,1078.2299,793.66299)" />
    <path
       id="path284"
       d="m 504,550.2 -8.5,5.3 v -10.6 z"
       style="fill:#000000;fill-opacity:1;fill-rule:evenodd;stroke:none"
       transform="matrix(1.3333333,0,0,-1.3333333,1078.2299,793.66299)" />
    <path
       id="path285"
       d="m 5.8359375,-11.131814 h 4.6992185 v 1.6523433 H 5.8359375 v 5.1796875 c 0,0.5625 0.038086,1.0195313 0.1171875,1.3710938 0.076172,0.3515625 0.2050781,0.6386719 0.3867187,0.8554687 0.1875,0.2109375 0.4248047,0.3603516 0.7148438,0.4453125 0.2871094,0.079102 0.6386719,0.1171875 1.0546875,0.1171875 0.5771484,0 1.0429688,-0.046875 1.3945313,-0.140625 0.3515625,-0.099609 0.6855467,-0.2285156 1.0078127,-0.3867187 l 0.292969,1.67578124 C 10.576172,-0.25974409 10.21875,-0.13083784 9.7265625,0.02443559 9.2402344,0.18849809 8.6396484,0.27052934 7.921875,0.27052934 c -0.8378906,0 -1.5205078,-0.0996094 -2.0507813,-0.29296875 C 5.3466797,-0.21579878 4.9365234,-0.50583784 4.640625,-0.88962691 4.3417969,-1.2704863 4.1396484,-1.7450957 4.03125,-2.3075957 3.9199219,-2.875955 3.8671875,-3.5409941 3.8671875,-4.2997832 V -9.4794707 H 1.5117187 v -1.6523433 h 2.3554688 v -3.128907 l 1.96875,-0.328125 z m 0,0"
       style="fill:#000000;fill-opacity:1;fill-rule:nonzero;stroke:none"
       aria-label="t"
       transform="matrix(1.3333333,0,0,1.3333333,1688.2299,44.596325)" />
    <path
       id="path286"
       d="M 54,505.2 H 36 v 36 h 36 v -36 z"
       style="fill:#99ccff;fill-opacity:1;fill-rule:evenodd;stroke:#000000;stroke-width:1;stroke-linecap:butt;stroke-linejoin:round;stroke-miterlimit:10;stroke-dasharray:none;stroke-opacity:1"
       transform="matrix(1.3333333,0,0,-1.3333333,1078.2299,793.66299)" />
    <path
       id="path287"
       d="m 7.1376953,-1.6534941 c 0.5771484,0 1.0927735,-0.017578 1.546875,-0.058594 0.459961,-0.038086 0.84375,-0.084961 1.1484375,-0.140625 v -3.8554688 c -0.3046875,-0.09375 -0.6679687,-0.1669922 -1.0898437,-0.2226562 -0.4160157,-0.061523 -0.8554688,-0.09375 -1.3242188,-0.09375 -0.4306641,0 -0.8525391,0.035156 -1.265625,0.1054687 -0.4072266,0.064453 -0.7705078,0.1816406 -1.0898437,0.3515625 -0.3134766,0.1640625 -0.5742188,0.3837891 -0.7851563,0.65625 -0.2050781,0.2666016 -0.3046875,0.6064453 -0.3046875,1.0195313 0,0.8378906 0.2841797,1.4179687 0.8554688,1.7460937 0.5683593,0.328125 1.3388671,0.4921875 2.3085937,0.4921878 z M 6.9150391,-13.301932 c 0.9667968,0 1.7841797,0.123047 2.4492187,0.363282 0.6621092,0.243164 1.1982422,0.580078 1.6054692,1.007812 0.413086,0.430664 0.703125,0.955078 0.867187,1.570313 0.169922,0.6181637 0.257813,1.2890622 0.257813,2.0156247 v 8.12109371 c -0.539063,0.09375 -1.253907,0.20507812 -2.1445317,0.328125 -0.8847656,0.13183593 -1.7929687,0.19921875 -2.7304687,0.19921875 -0.703125,0 -1.3916016,-0.0644531 -2.0625,-0.1875 -0.6738282,-0.1171875 -1.2714844,-0.328125 -1.7929688,-0.6328125 -0.524414,-0.31054688 -0.946289,-0.73828126 -1.265625,-1.27734376 -0.3134766,-0.5390625 -0.46875,-1.2304687 -0.46875,-2.0742187 0,-0.741211 0.1582031,-1.3710938 0.4804688,-1.8867188 0.328125,-0.515625 0.75,-0.9287109 1.265625,-1.2421875 0.515625,-0.3193359 1.1015625,-0.5507812 1.7578125,-0.6914062 0.6621093,-0.140625 1.3300781,-0.2109375 2.0039062,-0.2109375 0.9140625,0 1.8105469,0.1054687 2.6953125,0.3164062 v -0.6445312 c 0,-0.3984375 -0.043945,-0.7763672 -0.1289062,-1.1367188 C 9.6162109,-9.7306425 9.4580078,-10.061697 9.2236328,-10.360525 8.9892578,-10.656424 8.6728516,-10.893728 8.2744141,-11.075369 7.8759766,-11.25408 7.3544922,-11.3449 6.7158203,-11.3449 c -0.796875,0 -1.4970703,0.05859 -2.0976562,0.175781 -0.5947266,0.111328 -1.0517578,0.219726 -1.3710938,0.328125 l -0.28125,-1.898438 c 0.319336,-0.146484 0.8466797,-0.27539 1.5820313,-0.386718 0.7412109,-0.117188 1.5292968,-0.175782 2.3671875,-0.175782 z m 0,0"
       style="fill:#000000;fill-opacity:1;fill-rule:nonzero;stroke:none"
       aria-label="a"
       transform="matrix(1.3333333,0,0,1.3333333,1140.8966,108.32966)" />
    <path
       id="path288"
       d="M 90,505.2 H 72 v 36 h 36 v -36 z"
       style="fill:#99ccff;fill-opacity:1;fill-rule:evenodd;stroke:#000000;stroke-width:1;stroke-linecap:butt;stroke-linejoin:round;stroke-miterlimit:10;stroke-dasharray:none;stroke-opacity:1"
       transform="matrix(1.3333333,0,0,-1.3333333,1078.2299,793.66299)" />
    <path
       id="path289"
       d="m 6.8095703,-12.985525 h 5.4843747 v 1.921875 H 6.8095703 v 6.0468747 c 0,0.65625 0.041016,1.1923828 0.1289063,1.6054687 0.09375,0.4072266 0.2460937,0.7382813 0.4570312,0.9960938 0.2167969,0.2519531 0.4951172,0.421875 0.8320313,0.515625 0.3339843,0.087891 0.7441406,0.1289062 1.2304687,0.1289062 0.6708982,0 1.2128902,-0.052734 1.6289062,-0.1640625 0.413086,-0.1083984 0.802734,-0.2578125 1.171875,-0.4453125 l 0.339844,1.95703126 c -0.257813,0.11132812 -0.673828,0.2578125 -1.242188,0.4453125 -0.571289,0.1875 -1.277343,0.28125 -2.1210934,0.28125 -0.9697266,0 -1.7636719,-0.11132813 -2.3789063,-0.328125 -0.6181641,-0.22558594 -1.0986328,-0.5625 -1.4414062,-1.00781246 -0.3457032,-0.4511719 -0.5830079,-1.0078125 -0.7148438,-1.6640625 -0.1259766,-0.6621094 -0.1875,-1.4355469 -0.1875,-2.3203125 V -11.06365 H 1.7705078 v -1.921875 h 2.7421875 v -3.644532 l 2.296875,-0.398437 z m 0,0"
       style="fill:#000000;fill-opacity:1;fill-rule:nonzero;stroke:none"
       aria-label="t"
       transform="matrix(1.3333333,0,0,1.3333333,1188.8966,108.32966)" />
    <path
       id="path290"
       d="m 639,463.8 c 12.2,0 21.6,-9.3 21.6,-21.6 0,-12.2 -9.4,-21.6 -21.6,-21.6 -12.3,0 -21.6,9.4 -21.6,21.6 0,12.3 9.3,21.6 21.6,21.6 z m -21.6,0 z m 43.2,-43.2 z"
       style="fill:#e6e6e6;fill-opacity:1;fill-rule:evenodd;stroke:none"
       transform="matrix(1.3333333,0,0,-1.3333333,1078.2299,793.66299)" />
    <path
       id="path291"
       d="m 639,463.8 c 12.2,0 21.6,-9.3 21.6,-21.6 0,-12.2 -9.4,-21.6 -21.6,-21.6 -12.3,0 -21.6,9.4 -21.6,21.6 0,12.3 9.3,21.6 21.6,21.6 z"
       style="fill:none;stroke:#000000;stroke-width:1.4433;stroke-linecap:butt;stroke-linejoin:round;stroke-miterlimit:10;stroke-dasharray:none;stroke-opacity:1"
       transform="matrix(1.3333333,0,0,-1.3333333,1078.2299,793.66299)" />
    <path
       id="path292"
       d="M 617.4,463.8 Z"
       style="fill:none;stroke:#000000;stroke-width:1.4433;stroke-linecap:butt;stroke-linejoin:round;stroke-miterlimit:10;stroke-dasharray:none;stroke-opacity:1"
       transform="matrix(1.3333333,0,0,-1.3333333,1078.2299,793.66299)" />
    <path
       id="path293"
       d="M 660.6,420.6 Z"
       style="fill:none;stroke:#000000;stroke-width:1.4433;stroke-linecap:butt;stroke-linejoin:round;stroke-miterlimit:10;stroke-dasharray:none;stroke-opacity:1"
       transform="matrix(1.3333333,0,0,-1.3333333,1078.2299,793.66299)" />
    <path
       id="path294"
       d="m 531,571.8 c 12.2,0 21.6,-9.3 21.6,-21.6 0,-12.2 -9.4,-21.6 -21.6,-21.6 -12.3,0 -21.6,9.4 -21.6,21.6 0,12.3 9.3,21.6 21.6,21.6 z m -21.6,0 z m 43.2,-43.2 z"
       style="fill:#e6e6e6;fill-opacity:1;fill-rule:evenodd;stroke:none"
       transform="matrix(1.3333333,0,0,-1.3333333,1078.2299,793.66299)" />
    <path
       id="path295"
       d="m 531,571.8 c 12.2,0 21.6,-9.3 21.6,-21.6 0,-12.2 -9.4,-21.6 -21.6,-21.6 -12.3,0 -21.6,9.4 -21.6,21.6 0,12.3 9.3,21.6 21.6,21.6 z"
       style="fill:none;stroke:#000000;stroke-width:1.4433;stroke-linecap:butt;stroke-linejoin:round;stroke-miterlimit:10;stroke-dasharray:none;stroke-opacity:1"
       transform="matrix(1.3333333,0,0,-1.3333333,1078.2299,793.66299)" />
    <path
       id="path296"
       d="M 509.4,571.8 Z"
       style="fill:none;stroke:#000000;stroke-width:1.4433;stroke-linecap:butt;stroke-linejoin:round;stroke-miterlimit:10;stroke-dasharray:none;stroke-opacity:1"
       transform="matrix(1.3333333,0,0,-1.3333333,1078.2299,793.66299)" />
    <path
       id="path297"
       d="M 552.6,528.6 Z"
       style="fill:none;stroke:#000000;stroke-width:1.4433;stroke-linecap:butt;stroke-linejoin:round;stroke-miterlimit:10;stroke-dasharray:none;stroke-opacity:1"
       transform="matrix(1.3333333,0,0,-1.3333333,1078.2299,793.66299)" />
    <path
       id="path298"
       d="m 747,343.2 c 15.3,0 27,-11.7 27,-27 0,-15.3 -11.7,-27 -27,-27 -15.3,0 -27,11.7 -27,27 0,15.3 11.7,27 27,27 z m -27,0 z m 54,-54 z"
       style="fill:#ffd320;fill-opacity:1;fill-rule:evenodd;stroke:none"
       transform="matrix(1.3333333,0,0,-1.3333333,1078.2299,793.66299)" />
    <path
       id="path299"
       d="m 747,343.2 c 15.3,0 27,-11.7 27,-27 0,-15.3 -11.7,-27 -27,-27 -15.3,0 -27,11.7 -27,27 0,15.3 11.7,27 27,27 z"
       style="fill:none;stroke:#000000;stroke-width:1.4433;stroke-linecap:butt;stroke-linejoin:round;stroke-miterlimit:10;stroke-dasharray:none;stroke-opacity:1"
       transform="matrix(1.3333333,0,0,-1.3333333,1078.2299,793.66299)" />
    <path
       id="path300"
       d="M 720,343.2 Z"
       style="fill:none;stroke:#000000;stroke-width:1.4433;stroke-linecap:butt;stroke-linejoin:round;stroke-miterlimit:10;stroke-dasharray:none;stroke-opacity:1"
       transform="matrix(1.3333333,0,0,-1.3333333,1078.2299,793.66299)" />
    <path
       id="path301"
       d="M 774,289.2 Z"
       style="fill:none;stroke:#000000;stroke-width:1.4433;stroke-linecap:butt;stroke-linejoin:round;stroke-miterlimit:10;stroke-dasharray:none;stroke-opacity:1"
       transform="matrix(1.3333333,0,0,-1.3333333,1078.2299,793.66299)" />
    <path
       id="path302"
       d="m 747,337.8 c 12.2,0 21.6,-9.3 21.6,-21.6 0,-12.2 -9.4,-21.6 -21.6,-21.6 -12.3,0 -21.6,9.4 -21.6,21.6 0,12.3 9.3,21.6 21.6,21.6 z"
       style="fill:none;stroke:#000000;stroke-width:1.4433;stroke-linecap:butt;stroke-linejoin:round;stroke-miterlimit:10;stroke-dasharray:none;stroke-opacity:1"
       transform="matrix(1.3333333,0,0,-1.3333333,1078.2299,793.66299)" />
    <path
       id="path303"
       d="M 725.4,337.8 Z"
       style="fill:none;stroke:#000000;stroke-width:1.4433;stroke-linecap:butt;stroke-linejoin:round;stroke-miterlimit:10;stroke-dasharray:none;stroke-opacity:1"
       transform="matrix(1.3333333,0,0,-1.3333333,1078.2299,793.66299)" />
    <path
       id="path304"
       d="M 768.6,294.6 Z"
       style="fill:none;stroke:#000000;stroke-width:1.4433;stroke-linecap:butt;stroke-linejoin:round;stroke-miterlimit:10;stroke-dasharray:none;stroke-opacity:1"
       transform="matrix(1.3333333,0,0,-1.3333333,1078.2299,793.66299)" />
    <path
       id="path305"
       d="m 747,211.8 c 12.2,0 21.6,-9.3 21.6,-21.6 0,-12.2 -9.4,-21.6 -21.6,-21.6 -12.3,0 -21.6,9.4 -21.6,21.6 0,12.3 9.3,21.6 21.6,21.6 z"
       style="fill:none;stroke:#000000;stroke-width:1.4433;stroke-linecap:butt;stroke-linejoin:round;stroke-miterlimit:10;stroke-dasharray:none;stroke-opacity:1"
       transform="matrix(1.3333333,0,0,-1.3333333,1078.2299,793.66299)" />
    <path
       id="path306"
       d="M 725.4,211.8 Z"
       style="fill:none;stroke:#000000;stroke-width:1.4433;stroke-linecap:butt;stroke-linejoin:round;stroke-miterlimit:10;stroke-dasharray:none;stroke-opacity:1"
       transform="matrix(1.3333333,0,0,-1.3333333,1078.2299,793.66299)" />
    <path
       id="path307"
       d="M 768.6,168.6 Z"
       style="fill:none;stroke:#000000;stroke-width:1.4433;stroke-linecap:butt;stroke-linejoin:round;stroke-miterlimit:10;stroke-dasharray:none;stroke-opacity:1"
       transform="matrix(1.3333333,0,0,-1.3333333,1078.2299,793.66299)" />
    <path
       id="path308"
       d="m 234,316.2 h 38.7"
       style="fill:none;stroke:#000000;stroke-width:1.4433;stroke-linecap:butt;stroke-linejoin:round;stroke-miterlimit:10;stroke-dasharray:none;stroke-opacity:1"
       transform="matrix(1.3333333,0,0,-1.3333333,1078.2299,793.66299)" />
    <path
       id="path309"
       d="m 288,316.2 -16,5.3 v -10.6 z"
       style="fill:#000000;fill-opacity:1;fill-rule:evenodd;stroke:none"
       transform="matrix(1.3333333,0,0,-1.3333333,1078.2299,793.66299)" />
    <path
       id="path310"
       d="M 54,55.2 H 36 v 36 h 36 v -36 z"
       style="fill:#ffffcc;fill-opacity:1;fill-rule:evenodd;stroke:#000000;stroke-width:2.8866;stroke-linecap:butt;stroke-linejoin:round;stroke-miterlimit:10;stroke-dasharray:none;stroke-opacity:1"
       transform="matrix(1.3333333,0,0,-1.3333333,1078.2299,793.66299)" />
    <path
       id="path311"
       d="m 9.8330078,-3.2472441 c 0,-0.46875 -0.1933594,-0.8496094 -0.5742187,-1.1484375 C 8.875,-4.69158 8.3974609,-4.9523222 7.8291016,-5.1808378 7.2578125,-5.4064238 6.6367187,-5.6261503 5.9658203,-5.8370878 5.2919922,-6.0538847 4.6708984,-6.3204863 4.1025391,-6.6339628 3.53125,-6.9532988 3.0537109,-7.3429472 2.6728516,-7.8058378 c -0.3837891,-0.46875 -0.5742188,-1.078125 -0.5742188,-1.828125 0,-1.0458982 0.4248047,-1.9160152 1.2773438,-2.6132812 0.8496093,-0.703125 2.1796875,-1.054688 3.984375,-1.054688 0.7089843,0 1.4443359,0.05566 2.203125,0.164063 0.7558594,0.102539 1.4062504,0.234375 1.9453124,0.398437 l -0.421875,2.074219 c -0.149414,-0.07617 -0.357422,-0.155273 -0.621094,-0.234375 -0.257812,-0.08496 -0.5566403,-0.158203 -0.8906247,-0.222656 -0.336914,-0.07031 -0.6972656,-0.123047 -1.078125,-0.164063 -0.383789,-0.03809 -0.75,-0.05859 -1.1015625,-0.05859 -2.015625,0 -3.0234375,0.550781 -3.0234375,1.6523434 0,0.3984375 0.1904297,0.7353516 0.5742188,1.0078125 0.3808593,0.2666016 0.8613281,0.5126953 1.4414062,0.7382813 0.5771484,0.2197265 1.2011719,0.4453125 1.875,0.6796875 0.6708985,0.234375 1.2949219,0.5214843 1.8749997,0.8554687 0.577149,0.3369141 1.057618,0.7441406 1.441407,1.21875 0.380859,0.4775391 0.574218,1.078125 0.574218,1.8046875 0,1.171875 -0.457031,2.0830078 -1.371093,2.73046876 -0.9140629,0.64160156 -2.3642582,0.9609375 -4.3476567,0.9609375 -0.890625,0 -1.7109375,-0.0761719 -2.4609375,-0.22265625 C 3.2294922,-0.06560347 2.5234375,-0.28825972 1.8525391,-0.58708784 L 2.2978516,-2.6847441 c 0.65625,0.2988281 1.3388672,0.5449219 2.0507812,0.7382813 0.7177734,0.196289 1.4912109,0.2929687 2.3203125,0.2929687 2.109375,0 3.1640625,-0.5302734 3.1640625,-1.59375 z m 0,0"
       style="fill:#000000;fill-opacity:1;fill-rule:nonzero;stroke:none"
       aria-label="s"
       transform="matrix(1.3333333,0,0,1.3333333,1140.8966,708.32966)" />
    <path
       id="path312"
       d="M 90,55.2 H 72 v 36 h 36 v -36 z"
       style="fill:#ccffff;fill-opacity:1;fill-rule:evenodd;stroke:#000000;stroke-width:2.8866;stroke-linecap:butt;stroke-linejoin:round;stroke-miterlimit:10;stroke-dasharray:none;stroke-opacity:1"
       transform="matrix(1.3333333,0,0,-1.3333333,1078.2299,793.66299)" />
    <path
       id="path313"
       d="m 12.879883,-6.4933378 c 0,1.0253906 -0.146485,1.9541015 -0.433594,2.7890625 -0.290039,0.8291015 -0.697266,1.5439453 -1.21875,2.1445312 -0.524414,0.59472657 -1.148437,1.05468751 -1.8749999,1.38281251 -0.7265625,0.31933593 -1.5205079,0.48046875 -2.3789063,0.48046875 -0.84375,0 -1.6259766,-0.16113282 -2.34375,-0.48046875 C 3.9091797,-0.50505659 3.2880859,-0.96501753 2.7666016,-1.5597441 2.2509766,-2.16033 1.8466797,-2.8751738 1.5595703,-3.7042753 1.2695312,-4.5392363 1.1259766,-5.4679472 1.1259766,-6.4933378 c 0,-1.03125 0.1435546,-1.9628907 0.4335937,-2.8007813 0.2871094,-0.8437499 0.6914063,-1.5585939 1.2070313,-2.1445309 0.5214843,-0.585938 1.1425781,-1.042969 1.8632812,-1.371094 0.7177734,-0.328125 1.5,-0.492188 2.34375,-0.492188 0.8583984,0 1.6523438,0.164063 2.3789063,0.492188 0.7265629,0.328125 1.3505859,0.785156 1.8749999,1.371094 0.521484,0.585937 0.928711,1.300781 1.21875,2.1445309 0.287109,0.8378906 0.433594,1.7695313 0.433594,2.8007813 z m -2.378906,0 c 0,-1.4765625 -0.322266,-2.6367188 -0.9609379,-3.4804688 C 8.9072266,-10.823416 8.0517578,-11.25115 6.9736328,-11.25115 c -1.0634766,0 -1.9072266,0.427734 -2.53125,1.2773434 -0.6269531,0.84375 -0.9375,2.0039063 -0.9375,3.4804688 0,1.453125 0.3105469,2.6074218 0.9375,3.4570312 0.6240234,0.84375 1.4677734,1.265625 2.53125,1.265625 1.078125,0 1.9335938,-0.421875 2.5664063,-1.265625 0.6386719,-0.8496094 0.9609379,-2.0039062 0.9609379,-3.4570312 z m 0,0"
       style="fill:#000000;fill-opacity:1;fill-rule:nonzero;stroke:none"
       aria-label="o"
       transform="matrix(1.3333333,0,0,1.3333333,1188.8966,708.32966)" />
    <path
       id="path314"
       d="m 126,55.2 h -18 v 36 h 36 v -36 z"
       style="fill:#ccffff;fill-opacity:1;fill-rule:evenodd;stroke:#000000;stroke-width:2.8866;stroke-linecap:butt;stroke-linejoin:round;stroke-miterlimit:10;stroke-dasharray:none;stroke-opacity:1"
       transform="matrix(1.3333333,0,0,-1.3333333,1078.2299,793.66299)" />
    <path
       id="path315"
       d="m 7.1376953,-1.6534941 c 0.5771484,0 1.0927735,-0.017578 1.546875,-0.058594 0.459961,-0.038086 0.84375,-0.084961 1.1484375,-0.140625 v -3.8554688 c -0.3046875,-0.09375 -0.6679687,-0.1669922 -1.0898437,-0.2226562 -0.4160157,-0.061523 -0.8554688,-0.09375 -1.3242188,-0.09375 -0.4306641,0 -0.8525391,0.035156 -1.265625,0.1054687 -0.4072266,0.064453 -0.7705078,0.1816406 -1.0898437,0.3515625 -0.3134766,0.1640625 -0.5742188,0.3837891 -0.7851563,0.65625 -0.2050781,0.2666016 -0.3046875,0.6064453 -0.3046875,1.0195313 0,0.8378906 0.2841797,1.4179687 0.8554688,1.7460937 0.5683593,0.328125 1.3388671,0.4921875 2.3085937,0.4921878 z M 6.9150391,-13.301932 c 0.9667968,0 1.7841797,0.123047 2.4492187,0.363282 0.6621092,0.243164 1.1982422,0.580078 1.6054692,1.007812 0.413086,0.430664 0.703125,0.955078 0.867187,1.570313 0.169922,0.6181637 0.257813,1.2890622 0.257813,2.0156247 v 8.12109371 c -0.539063,0.09375 -1.253907,0.20507812 -2.1445317,0.328125 -0.8847656,0.13183593 -1.7929687,0.19921875 -2.7304687,0.19921875 -0.703125,0 -1.3916016,-0.0644531 -2.0625,-0.1875 -0.6738282,-0.1171875 -1.2714844,-0.328125 -1.7929688,-0.6328125 -0.524414,-0.31054688 -0.946289,-0.73828126 -1.265625,-1.27734376 -0.3134766,-0.5390625 -0.46875,-1.2304687 -0.46875,-2.0742187 0,-0.741211 0.1582031,-1.3710938 0.4804688,-1.8867188 0.328125,-0.515625 0.75,-0.9287109 1.265625,-1.2421875 0.515625,-0.3193359 1.1015625,-0.5507812 1.7578125,-0.6914062 0.6621093,-0.140625 1.3300781,-0.2109375 2.0039062,-0.2109375 0.9140625,0 1.8105469,0.1054687 2.6953125,0.3164062 v -0.6445312 c 0,-0.3984375 -0.043945,-0.7763672 -0.1289062,-1.1367188 C 9.6162109,-9.7306425 9.4580078,-10.061697 9.2236328,-10.360525 8.9892578,-10.656424 8.6728516,-10.893728 8.2744141,-11.075369 7.8759766,-11.25408 7.3544922,-11.3449 6.7158203,-11.3449 c -0.796875,0 -1.4970703,0.05859 -2.0976562,0.175781 -0.5947266,0.111328 -1.0517578,0.219726 -1.3710938,0.328125 l -0.28125,-1.898438 c 0.319336,-0.146484 0.8466797,-0.27539 1.5820313,-0.386718 0.7412109,-0.117188 1.5292968,-0.175782 2.3671875,-0.175782 z m 0,0"
       style="fill:#000000;fill-opacity:1;fill-rule:nonzero;stroke:none"
       aria-label="a"
       transform="matrix(1.3333333,0,0,1.3333333,1236.8966,708.32966)" />
    <path
       id="path316"
       d="m 162,55.2 h -18 v 36 h 36 v -36 z"
       style="fill:#ccffff;fill-opacity:1;fill-rule:evenodd;stroke:#000000;stroke-width:2.8866;stroke-linecap:butt;stroke-linejoin:round;stroke-miterlimit:10;stroke-dasharray:none;stroke-opacity:1"
       transform="matrix(1.3333333,0,0,-1.3333333,1078.2299,793.66299)" />
    <path
       id="path317"
       d="M 3.0009766,-0.00115034 V -12.294119 c 1.8984375,-0.647461 3.8203125,-0.972656 5.765625,-0.972656 0.5917968,0 1.1601562,0.02344 1.6992184,0.07031 0.544922,0.04687 1.142578,0.146485 1.792969,0.292969 l -0.410156,2.039062 c -0.603516,-0.164062 -1.133789,-0.269531 -1.59375,-0.316406 -0.4541017,-0.04687 -0.9492189,-0.07031 -1.4882814,-0.07031 -1.1425782,0 -2.296875,0.158203 -3.46875,0.46875 v 10.78124966 z m 0,0"
       style="fill:#000000;fill-opacity:1;fill-rule:nonzero;stroke:none"
       aria-label="r"
       transform="matrix(1.3333333,0,0,1.3333333,1284.8966,708.32966)" />
    <path
       id="path318"
       d="m 198,55.2 h -18 v 36 h 36 v -36 z"
       style="fill:#ccffff;fill-opacity:1;fill-rule:evenodd;stroke:#000000;stroke-width:2.8866;stroke-linecap:butt;stroke-linejoin:round;stroke-miterlimit:10;stroke-dasharray:none;stroke-opacity:1"
       transform="matrix(1.3333333,0,0,-1.3333333,1078.2299,793.66299)" />
    <path
       id="path319"
       d="m 9.8330078,-3.2472441 c 0,-0.46875 -0.1933594,-0.8496094 -0.5742187,-1.1484375 C 8.875,-4.69158 8.3974609,-4.9523222 7.8291016,-5.1808378 7.2578125,-5.4064238 6.6367187,-5.6261503 5.9658203,-5.8370878 5.2919922,-6.0538847 4.6708984,-6.3204863 4.1025391,-6.6339628 3.53125,-6.9532988 3.0537109,-7.3429472 2.6728516,-7.8058378 c -0.3837891,-0.46875 -0.5742188,-1.078125 -0.5742188,-1.828125 0,-1.0458982 0.4248047,-1.9160152 1.2773438,-2.6132812 0.8496093,-0.703125 2.1796875,-1.054688 3.984375,-1.054688 0.7089843,0 1.4443359,0.05566 2.203125,0.164063 0.7558594,0.102539 1.4062504,0.234375 1.9453124,0.398437 l -0.421875,2.074219 c -0.149414,-0.07617 -0.357422,-0.155273 -0.621094,-0.234375 -0.257812,-0.08496 -0.5566403,-0.158203 -0.8906247,-0.222656 -0.336914,-0.07031 -0.6972656,-0.123047 -1.078125,-0.164063 -0.383789,-0.03809 -0.75,-0.05859 -1.1015625,-0.05859 -2.015625,0 -3.0234375,0.550781 -3.0234375,1.6523434 0,0.3984375 0.1904297,0.7353516 0.5742188,1.0078125 0.3808593,0.2666016 0.8613281,0.5126953 1.4414062,0.7382813 0.5771484,0.2197265 1.2011719,0.4453125 1.875,0.6796875 0.6708985,0.234375 1.2949219,0.5214843 1.8749997,0.8554687 0.577149,0.3369141 1.057618,0.7441406 1.441407,1.21875 0.380859,0.4775391 0.574218,1.078125 0.574218,1.8046875 0,1.171875 -0.457031,2.0830078 -1.371093,2.73046876 -0.9140629,0.64160156 -2.3642582,0.9609375 -4.3476567,0.9609375 -0.890625,0 -1.7109375,-0.0761719 -2.4609375,-0.22265625 C 3.2294922,-0.06560347 2.5234375,-0.28825972 1.8525391,-0.58708784 L 2.2978516,-2.6847441 c 0.65625,0.2988281 1.3388672,0.5449219 2.0507812,0.7382813 0.7177734,0.196289 1.4912109,0.2929687 2.3203125,0.2929687 2.109375,0 3.1640625,-0.5302734 3.1640625,-1.59375 z m 0,0"
       style="fill:#000000;fill-opacity:1;fill-rule:nonzero;stroke:none"
       aria-label="s"
       transform="matrix(1.3333333,0,0,1.3333333,1332.8966,708.32966)" />
    <path
       id="path320"
       d="M 727.9,209.3 664.6,289"
       style="fill:none;stroke:#c5000b;stroke-width:2.8866;stroke-linecap:butt;stroke-linejoin:round;stroke-miterlimit:10;stroke-dasharray:none;stroke-opacity:1"
       transform="matrix(1.3333333,0,0,-1.3333333,1078.2299,793.66299)" />
    <path
       id="path321"
       d="m 658.8,296.4 1.4,-12 10,7.9 z"
       style="fill:#c5000b;fill-opacity:1;fill-rule:evenodd;stroke:none"
       transform="matrix(1.3333333,0,0,-1.3333333,1078.2299,793.66299)" />
  </g>
</svg>
