<?xml version="1.0" encoding="UTF-8"?>
<svg xmlns="http://www.w3.org/2000/svg" xmlns:xlink="http://www.w3.org/1999/xlink" width="50" height="111" viewBox="0 0 50 111">
<defs>
<g>
<g id="glyph-0-0">
<path d="M 3.328125 -3.015625 C 3.390625 -3.265625 3.625 -4.1875 4.3125 -4.1875 C 4.359375 -4.1875 4.609375 -4.1875 4.8125 -4.0625 C 4.53125 -4 4.34375 -3.765625 4.34375 -3.515625 C 4.34375 -3.359375 4.453125 -3.171875 4.71875 -3.171875 C 4.9375 -3.171875 5.25 -3.34375 5.25 -3.75 C 5.25 -4.265625 4.671875 -4.40625 4.328125 -4.40625 C 3.75 -4.40625 3.40625 -3.875 3.28125 -3.65625 C 3.03125 -4.3125 2.5 -4.40625 2.203125 -4.40625 C 1.171875 -4.40625 0.59375 -3.125 0.59375 -2.875 C 0.59375 -2.765625 0.703125 -2.765625 0.71875 -2.765625 C 0.796875 -2.765625 0.828125 -2.796875 0.84375 -2.875 C 1.1875 -3.9375 1.84375 -4.1875 2.1875 -4.1875 C 2.375 -4.1875 2.71875 -4.09375 2.71875 -3.515625 C 2.71875 -3.203125 2.546875 -2.546875 2.1875 -1.140625 C 2.03125 -0.53125 1.671875 -0.109375 1.234375 -0.109375 C 1.171875 -0.109375 0.953125 -0.109375 0.734375 -0.234375 C 0.984375 -0.296875 1.203125 -0.5 1.203125 -0.78125 C 1.203125 -1.046875 0.984375 -1.125 0.84375 -1.125 C 0.53125 -1.125 0.296875 -0.875 0.296875 -0.546875 C 0.296875 -0.09375 0.78125 0.109375 1.21875 0.109375 C 1.890625 0.109375 2.25 -0.59375 2.265625 -0.640625 C 2.390625 -0.28125 2.75 0.109375 3.34375 0.109375 C 4.375 0.109375 4.9375 -1.171875 4.9375 -1.421875 C 4.9375 -1.53125 4.859375 -1.53125 4.828125 -1.53125 C 4.734375 -1.53125 4.71875 -1.484375 4.6875 -1.421875 C 4.359375 -0.34375 3.6875 -0.109375 3.375 -0.109375 C 2.984375 -0.109375 2.828125 -0.421875 2.828125 -0.765625 C 2.828125 -0.984375 2.875 -1.203125 2.984375 -1.640625 Z M 3.328125 -3.015625 "/>
</g>
<g id="glyph-0-1">
<path d="M 4.671875 -3.703125 C 4.671875 -4.25 4.40625 -4.40625 4.234375 -4.40625 C 3.984375 -4.40625 3.734375 -4.140625 3.734375 -3.921875 C 3.734375 -3.796875 3.78125 -3.734375 3.890625 -3.625 C 4.109375 -3.421875 4.234375 -3.171875 4.234375 -2.8125 C 4.234375 -2.390625 3.625 -0.109375 2.46875 -0.109375 C 1.953125 -0.109375 1.71875 -0.453125 1.71875 -0.984375 C 1.71875 -1.53125 2 -2.265625 2.296875 -3.09375 C 2.375 -3.265625 2.421875 -3.40625 2.421875 -3.59375 C 2.421875 -4.03125 2.109375 -4.40625 1.609375 -4.40625 C 0.671875 -4.40625 0.296875 -2.953125 0.296875 -2.875 C 0.296875 -2.765625 0.390625 -2.765625 0.40625 -2.765625 C 0.515625 -2.765625 0.515625 -2.796875 0.5625 -2.953125 C 0.859375 -3.953125 1.28125 -4.1875 1.578125 -4.1875 C 1.65625 -4.1875 1.828125 -4.1875 1.828125 -3.875 C 1.828125 -3.625 1.71875 -3.34375 1.65625 -3.171875 C 1.21875 -2.015625 1.09375 -1.5625 1.09375 -1.125 C 1.09375 -0.046875 1.96875 0.109375 2.421875 0.109375 C 4.09375 0.109375 4.671875 -3.1875 4.671875 -3.703125 Z M 4.671875 -3.703125 "/>
</g>
<g id="glyph-1-0">
<path d="M 4.84375 -3.796875 C 4.890625 -3.9375 4.890625 -3.953125 4.890625 -4.03125 C 4.890625 -4.203125 4.75 -4.296875 4.59375 -4.296875 C 4.5 -4.296875 4.34375 -4.234375 4.25 -4.09375 C 4.234375 -4.03125 4.140625 -3.734375 4.109375 -3.546875 C 4.03125 -3.296875 3.96875 -3.015625 3.90625 -2.75 L 3.453125 -0.953125 C 3.421875 -0.8125 2.984375 -0.109375 2.328125 -0.109375 C 1.828125 -0.109375 1.71875 -0.546875 1.71875 -0.921875 C 1.71875 -1.375 1.890625 -2 2.21875 -2.875 C 2.375 -3.28125 2.421875 -3.390625 2.421875 -3.59375 C 2.421875 -4.03125 2.109375 -4.40625 1.609375 -4.40625 C 0.65625 -4.40625 0.296875 -2.953125 0.296875 -2.875 C 0.296875 -2.765625 0.390625 -2.765625 0.40625 -2.765625 C 0.515625 -2.765625 0.515625 -2.796875 0.5625 -2.953125 C 0.84375 -3.890625 1.234375 -4.1875 1.578125 -4.1875 C 1.65625 -4.1875 1.828125 -4.1875 1.828125 -3.875 C 1.828125 -3.625 1.71875 -3.359375 1.65625 -3.171875 C 1.25 -2.109375 1.078125 -1.546875 1.078125 -1.078125 C 1.078125 -0.1875 1.703125 0.109375 2.296875 0.109375 C 2.6875 0.109375 3.015625 -0.0625 3.296875 -0.34375 C 3.171875 0.171875 3.046875 0.671875 2.65625 1.203125 C 2.390625 1.53125 2.015625 1.828125 1.5625 1.828125 C 1.421875 1.828125 0.96875 1.796875 0.796875 1.40625 C 0.953125 1.40625 1.09375 1.40625 1.21875 1.28125 C 1.328125 1.203125 1.421875 1.0625 1.421875 0.875 C 1.421875 0.5625 1.15625 0.53125 1.0625 0.53125 C 0.828125 0.53125 0.5 0.6875 0.5 1.171875 C 0.5 1.671875 0.9375 2.046875 1.5625 2.046875 C 2.578125 2.046875 3.609375 1.140625 3.890625 0.015625 Z M 4.84375 -3.796875 "/>
</g>
</g>
<clipPath id="clip-0">
<path clip-rule="nonzero" d="M 43 97 L 48 97 L 48 104.929688 L 43 104.929688 Z M 43 97 "/>
</clipPath>
</defs>
<g fill="rgb(0%, 0%, 0%)" fill-opacity="1">
<use xlink:href="#glyph-0-0" x="43" y="70"/>
</g>
<g clip-path="url(#clip-0)">
<g fill="rgb(0%, 0%, 0%)" fill-opacity="1">
<use xlink:href="#glyph-1-0" x="43" y="101.993"/>
</g>
</g>
<path fill="none" stroke-width="0.4" stroke-linecap="butt" stroke-linejoin="round" stroke="rgb(0%, 0%, 0%)" stroke-opacity="1" stroke-miterlimit="10" d="M 204 680 C 204 685.332031 196 685.332031 196 680 C 196 674.667969 204 674.667969 204 680 Z M 204 680 " transform="matrix(1, 0, 0, -1, -161, 754)"/>
<path fill="none" stroke-width="0.4" stroke-linecap="butt" stroke-linejoin="round" stroke="rgb(0%, 0%, 0%)" stroke-opacity="1" stroke-miterlimit="10" d="M 204 648 C 204 653.332031 196 653.332031 196 648 C 196 642.667969 204 642.667969 204 648 Z M 204 648 " transform="matrix(1, 0, 0, -1, -161, 754)"/>
<path fill="none" stroke-width="0.8" stroke-linecap="butt" stroke-linejoin="round" stroke="rgb(0%, 0%, 0%)" stroke-opacity="1" stroke-miterlimit="10" d="M 200 676 L 200 652 " transform="matrix(1, 0, 0, -1, -161, 754)"/>
<path fill-rule="evenodd" fill="rgb(0%, 0%, 0%)" fill-opacity="1" stroke-width="0.8" stroke-linecap="butt" stroke-linejoin="round" stroke="rgb(0%, 0%, 0%)" stroke-opacity="1" stroke-miterlimit="10" d="M 200 652 L 202.332031 659 L 197.667969 659 Z M 200 652 " transform="matrix(1, 0, 0, -1, -161, 754)"/>
<path fill="none" stroke-width="0.4" stroke-linecap="butt" stroke-linejoin="round" stroke="rgb(0%, 0%, 0%)" stroke-opacity="1" stroke-miterlimit="10" d="M 204 712 C 204 717.332031 196 717.332031 196 712 C 196 706.667969 204 706.667969 204 712 Z M 204 712 " transform="matrix(1, 0, 0, -1, -161, 754)"/>
<path fill="none" stroke-width="0.8" stroke-linecap="butt" stroke-linejoin="round" stroke="rgb(0%, 0%, 0%)" stroke-opacity="1" stroke-miterlimit="10" d="M 200 708 L 200 684 " transform="matrix(1, 0, 0, -1, -161, 754)"/>
<path fill-rule="evenodd" fill="rgb(0%, 0%, 0%)" fill-opacity="1" stroke-width="0.8" stroke-linecap="butt" stroke-linejoin="round" stroke="rgb(0%, 0%, 0%)" stroke-opacity="1" stroke-miterlimit="10" d="M 200 684 L 202.332031 691 L 197.667969 691 Z M 200 684 " transform="matrix(1, 0, 0, -1, -161, 754)"/>
<path fill="none" stroke-width="0.4" stroke-linecap="butt" stroke-linejoin="round" stroke="rgb(0%, 0%, 0%)" stroke-opacity="1" stroke-miterlimit="10" d="M 204 744 C 204 749.332031 196 749.332031 196 744 C 196 738.667969 204 738.667969 204 744 Z M 204 744 " transform="matrix(1, 0, 0, -1, -161, 754)"/>
<path fill="none" stroke-width="0.8" stroke-linecap="butt" stroke-linejoin="round" stroke="rgb(0%, 0%, 0%)" stroke-opacity="1" stroke-miterlimit="10" d="M 200 740 L 200 716 " transform="matrix(1, 0, 0, -1, -161, 754)"/>
<path fill-rule="evenodd" fill="rgb(0%, 0%, 0%)" fill-opacity="1" stroke-width="0.8" stroke-linecap="butt" stroke-linejoin="round" stroke="rgb(0%, 0%, 0%)" stroke-opacity="1" stroke-miterlimit="10" d="M 200 716 L 202.332031 723 L 197.667969 723 Z M 200 716 " transform="matrix(1, 0, 0, -1, -161, 754)"/>
<g fill="rgb(0%, 0%, 0%)" fill-opacity="1">
<use xlink:href="#glyph-0-1" x="43" y="6"/>
</g>
<path fill="none" stroke-width="0.4" stroke-linecap="butt" stroke-linejoin="round" stroke="rgb(0%, 0%, 0%)" stroke-opacity="1" stroke-miterlimit="10" d="M 196 648 C 176 656 180 664 179.332031 669.332031 C 178.667969 674.667969 173.332031 677.332031 172.667969 681.332031 C 172 685.332031 176 690.667969 174 694 C 172 697.332031 164 698.667969 163.332031 702.667969 C 162.667969 706.667969 169.332031 713.332031 169.332031 718 C 169.332031 722.667969 162.667969 725.332031 162.667969 728 C 162.667969 730.667969 169.332031 733.332031 168.667969 735.667969 C 168 738 160 740 196 744 " transform="matrix(1, 0, 0, -1, -161, 754)"/>
<path fill-rule="evenodd" fill="rgb(0%, 0%, 0%)" fill-opacity="1" stroke-width="0.4" stroke-linecap="butt" stroke-linejoin="round" stroke="rgb(0%, 0%, 0%)" stroke-opacity="1" stroke-miterlimit="10" d="M 196 744 L 188.785156 745.542969 L 189.300781 740.910156 Z M 196 744 " transform="matrix(1, 0, 0, -1, -161, 754)"/>
</svg>
