<?xml version="1.0" encoding="UTF-8"?>
<svg xmlns="http://www.w3.org/2000/svg" xmlns:xlink="http://www.w3.org/1999/xlink" width="138" height="134" viewBox="0 0 138 134">
<path fill-rule="evenodd" fill="rgb(0%, 0%, 0%)" fill-opacity="1" d="M 36.800781 3 C 36.800781 0.601562 33.199219 0.601562 33.199219 3 C 33.199219 5.398438 36.800781 5.398438 36.800781 3 Z M 36.800781 3 "/>
<path fill-rule="evenodd" fill="rgb(0%, 0%, 0%)" fill-opacity="1" d="M 20.800781 19 C 20.800781 16.601562 17.199219 16.601562 17.199219 19 C 17.199219 21.398438 20.800781 21.398438 20.800781 19 Z M 20.800781 19 "/>
<path fill-rule="evenodd" fill="rgb(0%, 0%, 0%)" fill-opacity="1" d="M 36.800781 35 C 36.800781 32.601562 33.199219 32.601562 33.199219 35 C 33.199219 37.398438 36.800781 37.398438 36.800781 35 Z M 36.800781 35 "/>
<path fill-rule="evenodd" fill="rgb(0%, 0%, 0%)" fill-opacity="1" d="M 52.800781 19 C 52.800781 16.601562 49.199219 16.601562 49.199219 19 C 49.199219 21.398438 52.800781 21.398438 52.800781 19 Z M 52.800781 19 "/>
<path fill="none" stroke-width="0.4" stroke-linecap="butt" stroke-linejoin="round" stroke="rgb(0%, 0%, 0%)" stroke-opacity="1" stroke-miterlimit="10" d="M 144 576 L 144 544 " transform="matrix(1, 0, 0, -1, -109, 579)"/>
<path fill="none" stroke-width="0.4" stroke-linecap="butt" stroke-linejoin="round" stroke="rgb(0%, 0%, 0%)" stroke-opacity="1" stroke-miterlimit="10" d="M 128 560 L 160 560 " transform="matrix(1, 0, 0, -1, -109, 579)"/>
<path fill="none" stroke-width="0.4" stroke-linecap="butt" stroke-linejoin="round" stroke="rgb(0%, 0%, 0%)" stroke-opacity="1" stroke-miterlimit="10" d="M 144 576 L 160 560 " transform="matrix(1, 0, 0, -1, -109, 579)"/>
<path fill="none" stroke-width="0.4" stroke-linecap="butt" stroke-linejoin="round" stroke="rgb(0%, 0%, 0%)" stroke-opacity="1" stroke-miterlimit="10" d="M 144 576 L 128 560 " transform="matrix(1, 0, 0, -1, -109, 579)"/>
<path fill="none" stroke-width="0.4" stroke-linecap="butt" stroke-linejoin="round" stroke="rgb(0%, 0%, 0%)" stroke-opacity="1" stroke-miterlimit="10" d="M 128 560 L 144 544 " transform="matrix(1, 0, 0, -1, -109, 579)"/>
<path fill="none" stroke-width="0.4" stroke-linecap="butt" stroke-linejoin="round" stroke="rgb(0%, 0%, 0%)" stroke-opacity="1" stroke-miterlimit="10" d="M 144 544 L 160 560 " transform="matrix(1, 0, 0, -1, -109, 579)"/>
<path fill="none" stroke-width="0.4" stroke-linecap="butt" stroke-linejoin="round" stroke="rgb(0%, 0%, 0%)" stroke-opacity="1" stroke-miterlimit="10" d="M 144 544 L 144 528 " transform="matrix(1, 0, 0, -1, -109, 579)"/>
<path fill-rule="evenodd" fill="rgb(0%, 0%, 0%)" fill-opacity="1" d="M 36.800781 51 C 36.800781 48.601562 33.199219 48.601562 33.199219 51 C 33.199219 53.398438 36.800781 53.398438 36.800781 51 Z M 36.800781 51 "/>
<path fill-rule="evenodd" fill="rgb(0%, 0%, 0%)" fill-opacity="1" d="M 24.800781 67 C 24.800781 64.601562 21.199219 64.601562 21.199219 67 C 21.199219 69.398438 24.800781 69.398438 24.800781 67 Z M 24.800781 67 "/>
<path fill-rule="evenodd" fill="rgb(0%, 0%, 0%)" fill-opacity="1" d="M 48.800781 67 C 48.800781 64.601562 45.199219 64.601562 45.199219 67 C 45.199219 69.398438 48.800781 69.398438 48.800781 67 Z M 48.800781 67 "/>
<path fill="none" stroke-width="0.4" stroke-linecap="butt" stroke-linejoin="round" stroke="rgb(0%, 0%, 0%)" stroke-opacity="1" stroke-miterlimit="10" d="M 144 528 L 132 512 " transform="matrix(1, 0, 0, -1, -109, 579)"/>
<path fill="none" stroke-width="0.4" stroke-linecap="butt" stroke-linejoin="round" stroke="rgb(0%, 0%, 0%)" stroke-opacity="1" stroke-miterlimit="10" d="M 132 512 L 156 512 " transform="matrix(1, 0, 0, -1, -109, 579)"/>
<path fill="none" stroke-width="0.4" stroke-linecap="butt" stroke-linejoin="round" stroke="rgb(0%, 0%, 0%)" stroke-opacity="1" stroke-miterlimit="10" d="M 156 512 L 144 528 " transform="matrix(1, 0, 0, -1, -109, 579)"/>
<path fill-rule="evenodd" fill="rgb(0%, 0%, 0%)" fill-opacity="1" d="M 68.800781 35 C 68.800781 32.601562 65.199219 32.601562 65.199219 35 C 65.199219 37.398438 68.800781 37.398438 68.800781 35 Z M 68.800781 35 "/>
<path fill-rule="evenodd" fill="rgb(0%, 0%, 0%)" fill-opacity="1" d="M 84.800781 51 C 84.800781 48.601562 81.199219 48.601562 81.199219 51 C 81.199219 53.398438 84.800781 53.398438 84.800781 51 Z M 84.800781 51 "/>
<path fill="none" stroke-width="0.4" stroke-linecap="butt" stroke-linejoin="round" stroke="rgb(0%, 0%, 0%)" stroke-opacity="1" stroke-miterlimit="10" d="M 176 544 L 192 528 " transform="matrix(1, 0, 0, -1, -109, 579)"/>
<path fill-rule="evenodd" fill="rgb(0%, 0%, 0%)" fill-opacity="1" d="M 20.800781 99 C 20.800781 96.601562 17.199219 96.601562 17.199219 99 C 17.199219 101.398438 20.800781 101.398438 20.800781 99 Z M 20.800781 99 "/>
<path fill-rule="evenodd" fill="rgb(0%, 0%, 0%)" fill-opacity="1" d="M 4.800781 115 C 4.800781 112.601562 1.199219 112.601562 1.199219 115 C 1.199219 117.398438 4.800781 117.398438 4.800781 115 Z M 4.800781 115 "/>
<path fill-rule="evenodd" fill="rgb(0%, 0%, 0%)" fill-opacity="1" d="M 20.800781 131 C 20.800781 128.601562 17.199219 128.601562 17.199219 131 C 17.199219 133.398438 20.800781 133.398438 20.800781 131 Z M 20.800781 131 "/>
<path fill-rule="evenodd" fill="rgb(0%, 0%, 0%)" fill-opacity="1" d="M 36.800781 115 C 36.800781 112.601562 33.199219 112.601562 33.199219 115 C 33.199219 117.398438 36.800781 117.398438 36.800781 115 Z M 36.800781 115 "/>
<path fill="none" stroke-width="0.4" stroke-linecap="butt" stroke-linejoin="round" stroke="rgb(0%, 0%, 0%)" stroke-opacity="1" stroke-miterlimit="10" d="M 128 480 L 128 448 " transform="matrix(1, 0, 0, -1, -109, 579)"/>
<path fill="none" stroke-width="0.4" stroke-linecap="butt" stroke-linejoin="round" stroke="rgb(0%, 0%, 0%)" stroke-opacity="1" stroke-miterlimit="10" d="M 112 464 L 144 464 " transform="matrix(1, 0, 0, -1, -109, 579)"/>
<path fill="none" stroke-width="0.4" stroke-linecap="butt" stroke-linejoin="round" stroke="rgb(0%, 0%, 0%)" stroke-opacity="1" stroke-miterlimit="10" d="M 128 480 L 144 464 " transform="matrix(1, 0, 0, -1, -109, 579)"/>
<path fill="none" stroke-width="0.4" stroke-linecap="butt" stroke-linejoin="round" stroke="rgb(0%, 0%, 0%)" stroke-opacity="1" stroke-miterlimit="10" d="M 128 480 L 112 464 " transform="matrix(1, 0, 0, -1, -109, 579)"/>
<path fill="none" stroke-width="0.4" stroke-linecap="butt" stroke-linejoin="round" stroke="rgb(0%, 0%, 0%)" stroke-opacity="1" stroke-miterlimit="10" d="M 112 464 L 128 448 " transform="matrix(1, 0, 0, -1, -109, 579)"/>
<path fill="none" stroke-width="0.4" stroke-linecap="butt" stroke-linejoin="round" stroke="rgb(0%, 0%, 0%)" stroke-opacity="1" stroke-miterlimit="10" d="M 128 448 L 144 464 " transform="matrix(1, 0, 0, -1, -109, 579)"/>
<path fill-rule="evenodd" fill="rgb(0%, 0%, 0%)" fill-opacity="1" d="M 76.800781 99 C 76.800781 96.601562 73.199219 96.601562 73.199219 99 C 73.199219 101.398438 76.800781 101.398438 76.800781 99 Z M 76.800781 99 "/>
<path fill-rule="evenodd" fill="rgb(0%, 0%, 0%)" fill-opacity="1" d="M 64.800781 115 C 64.800781 112.601562 61.199219 112.601562 61.199219 115 C 61.199219 117.398438 64.800781 117.398438 64.800781 115 Z M 64.800781 115 "/>
<path fill-rule="evenodd" fill="rgb(0%, 0%, 0%)" fill-opacity="1" d="M 88.800781 115 C 88.800781 112.601562 85.199219 112.601562 85.199219 115 C 85.199219 117.398438 88.800781 117.398438 88.800781 115 Z M 88.800781 115 "/>
<path fill="none" stroke-width="0.4" stroke-linecap="butt" stroke-linejoin="round" stroke="rgb(0%, 0%, 0%)" stroke-opacity="1" stroke-miterlimit="10" d="M 184 480 L 172 464 " transform="matrix(1, 0, 0, -1, -109, 579)"/>
<path fill="none" stroke-width="0.4" stroke-linecap="butt" stroke-linejoin="round" stroke="rgb(0%, 0%, 0%)" stroke-opacity="1" stroke-miterlimit="10" d="M 172 464 L 196 464 " transform="matrix(1, 0, 0, -1, -109, 579)"/>
<path fill="none" stroke-width="0.4" stroke-linecap="butt" stroke-linejoin="round" stroke="rgb(0%, 0%, 0%)" stroke-opacity="1" stroke-miterlimit="10" d="M 196 464 L 184 480 " transform="matrix(1, 0, 0, -1, -109, 579)"/>
<path fill-rule="evenodd" fill="rgb(0%, 0%, 0%)" fill-opacity="1" d="M 116.800781 107 C 116.800781 104.601562 113.199219 104.601562 113.199219 107 C 113.199219 109.398438 116.800781 109.398438 116.800781 107 Z M 116.800781 107 "/>
<path fill-rule="evenodd" fill="rgb(0%, 0%, 0%)" fill-opacity="1" d="M 136.800781 107 C 136.800781 104.601562 133.199219 104.601562 133.199219 107 C 133.199219 109.398438 136.800781 109.398438 136.800781 107 Z M 136.800781 107 "/>
</svg>
