<?xml version="1.0" encoding="UTF-8"?>
<svg xmlns="http://www.w3.org/2000/svg" xmlns:xlink="http://www.w3.org/1999/xlink" width="67" height="65" viewBox="0 0 67 65">
<defs>
<g>
<g id="glyph-0-0">
<path d="M 7.578125 -6.921875 C 7.578125 -6.953125 7.5625 -7.03125 7.46875 -7.03125 C 7.4375 -7.03125 7.421875 -7.015625 7.3125 -6.90625 L 6.625 -6.140625 C 6.53125 -6.28125 6.078125 -7.03125 4.96875 -7.03125 C 2.734375 -7.03125 0.5 -4.828125 0.5 -2.515625 C 0.5 -0.875 1.671875 0.21875 3.203125 0.21875 C 4.0625 0.21875 4.828125 -0.171875 5.359375 -0.640625 C 6.28125 -1.453125 6.453125 -2.359375 6.453125 -2.390625 C 6.453125 -2.5 6.34375 -2.5 6.328125 -2.5 C 6.265625 -2.5 6.21875 -2.46875 6.203125 -2.390625 C 6.109375 -2.109375 5.875 -1.390625 5.1875 -0.8125 C 4.5 -0.265625 3.875 -0.09375 3.359375 -0.09375 C 2.46875 -0.09375 1.40625 -0.609375 1.40625 -2.15625 C 1.40625 -2.734375 1.609375 -4.34375 2.609375 -5.515625 C 3.21875 -6.21875 4.15625 -6.71875 5.046875 -6.71875 C 6.0625 -6.71875 6.65625 -5.953125 6.65625 -4.796875 C 6.65625 -4.390625 6.625 -4.390625 6.625 -4.28125 C 6.625 -4.1875 6.734375 -4.1875 6.765625 -4.1875 C 6.890625 -4.1875 6.890625 -4.203125 6.953125 -4.390625 Z M 7.578125 -6.921875 "/>
</g>
<g id="glyph-0-1">
<path d="M 1.578125 -0.78125 C 1.484375 -0.390625 1.46875 -0.3125 0.671875 -0.3125 C 0.515625 -0.3125 0.40625 -0.3125 0.40625 -0.125 C 0.40625 0 0.484375 0 0.671875 0 L 3.984375 0 C 6.046875 0 8.015625 -2.109375 8.015625 -4.28125 C 8.015625 -5.6875 7.171875 -6.8125 5.671875 -6.8125 L 2.328125 -6.8125 C 2.140625 -6.8125 2.03125 -6.8125 2.03125 -6.625 C 2.03125 -6.5 2.109375 -6.5 2.3125 -6.5 C 2.4375 -6.5 2.625 -6.484375 2.734375 -6.484375 C 2.90625 -6.453125 2.953125 -6.4375 2.953125 -6.3125 C 2.953125 -6.28125 2.953125 -6.25 2.921875 -6.125 Z M 3.734375 -6.125 C 3.828125 -6.46875 3.84375 -6.5 4.28125 -6.5 L 5.34375 -6.5 C 6.3125 -6.5 7.140625 -5.96875 7.140625 -4.65625 C 7.140625 -4.171875 6.953125 -2.53125 6.09375 -1.4375 C 5.8125 -1.0625 5.03125 -0.3125 3.796875 -0.3125 L 2.671875 -0.3125 C 2.53125 -0.3125 2.515625 -0.3125 2.453125 -0.3125 C 2.359375 -0.328125 2.328125 -0.34375 2.328125 -0.421875 C 2.328125 -0.453125 2.328125 -0.46875 2.375 -0.640625 Z M 3.734375 -6.125 "/>
</g>
<g id="glyph-0-2">
<path d="M 1.78125 -1.140625 C 1.390625 -0.484375 1 -0.34375 0.5625 -0.3125 C 0.4375 -0.296875 0.34375 -0.296875 0.34375 -0.109375 C 0.34375 -0.046875 0.40625 0 0.484375 0 C 0.75 0 1.0625 -0.03125 1.328125 -0.03125 C 1.671875 -0.03125 2.015625 0 2.328125 0 C 2.390625 0 2.515625 0 2.515625 -0.1875 C 2.515625 -0.296875 2.4375 -0.3125 2.359375 -0.3125 C 2.140625 -0.328125 1.890625 -0.40625 1.890625 -0.65625 C 1.890625 -0.78125 1.953125 -0.890625 2.03125 -1.03125 L 2.796875 -2.296875 L 5.296875 -2.296875 C 5.3125 -2.09375 5.453125 -0.734375 5.453125 -0.640625 C 5.453125 -0.34375 4.9375 -0.3125 4.734375 -0.3125 C 4.59375 -0.3125 4.5 -0.3125 4.5 -0.109375 C 4.5 0 4.609375 0 4.640625 0 C 5.046875 0 5.46875 -0.03125 5.875 -0.03125 C 6.125 -0.03125 6.765625 0 7.015625 0 C 7.0625 0 7.1875 0 7.1875 -0.203125 C 7.1875 -0.3125 7.09375 -0.3125 6.953125 -0.3125 C 6.34375 -0.3125 6.34375 -0.375 6.3125 -0.671875 L 5.703125 -6.890625 C 5.6875 -7.09375 5.6875 -7.140625 5.515625 -7.140625 C 5.359375 -7.140625 5.3125 -7.0625 5.25 -6.96875 Z M 2.984375 -2.609375 L 4.9375 -5.90625 L 5.265625 -2.609375 Z M 2.984375 -2.609375 "/>
</g>
<g id="glyph-0-3">
<path d="M 1.59375 -0.78125 C 1.5 -0.390625 1.46875 -0.3125 0.6875 -0.3125 C 0.515625 -0.3125 0.421875 -0.3125 0.421875 -0.109375 C 0.421875 0 0.515625 0 0.6875 0 L 4.25 0 C 5.828125 0 7 -1.171875 7 -2.15625 C 7 -2.875 6.421875 -3.453125 5.453125 -3.5625 C 6.484375 -3.75 7.53125 -4.484375 7.53125 -5.4375 C 7.53125 -6.171875 6.875 -6.8125 5.6875 -6.8125 L 2.328125 -6.8125 C 2.140625 -6.8125 2.046875 -6.8125 2.046875 -6.609375 C 2.046875 -6.5 2.140625 -6.5 2.328125 -6.5 C 2.34375 -6.5 2.53125 -6.5 2.703125 -6.484375 C 2.875 -6.453125 2.96875 -6.453125 2.96875 -6.3125 C 2.96875 -6.28125 2.953125 -6.25 2.9375 -6.125 Z M 3.09375 -3.65625 L 3.71875 -6.125 C 3.8125 -6.46875 3.828125 -6.5 4.25 -6.5 L 5.546875 -6.5 C 6.421875 -6.5 6.625 -5.90625 6.625 -5.46875 C 6.625 -4.59375 5.765625 -3.65625 4.5625 -3.65625 Z M 2.65625 -0.3125 C 2.515625 -0.3125 2.5 -0.3125 2.4375 -0.3125 C 2.328125 -0.328125 2.296875 -0.34375 2.296875 -0.421875 C 2.296875 -0.453125 2.296875 -0.46875 2.359375 -0.640625 L 3.046875 -3.421875 L 4.921875 -3.421875 C 5.875 -3.421875 6.078125 -2.6875 6.078125 -2.265625 C 6.078125 -1.28125 5.1875 -0.3125 4 -0.3125 Z M 2.65625 -0.3125 "/>
</g>
</g>
<clipPath id="clip-0">
<path clip-rule="nonzero" d="M 29 0.191406 L 37 0.191406 L 37 9 L 29 9 Z M 29 0.191406 "/>
</clipPath>
<clipPath id="clip-1">
<path clip-rule="nonzero" d="M 33 52.191406 L 41 52.191406 L 41 60 L 33 60 Z M 33 52.191406 "/>
</clipPath>
</defs>
<path fill-rule="evenodd" fill="rgb(0%, 0%, 0%)" fill-opacity="1" d="M 26.800781 8 C 26.800781 5.601562 23.199219 5.601562 23.199219 8 C 23.199219 10.398438 26.800781 10.398438 26.800781 8 Z M 26.800781 8 "/>
<g clip-path="url(#clip-0)">
<g fill="rgb(0%, 0%, 0%)" fill-opacity="1">
<use xlink:href="#glyph-0-0" x="29" y="8"/>
</g>
</g>
<path fill-rule="evenodd" fill="rgb(0%, 0%, 0%)" fill-opacity="1" d="M 26.800781 28 C 26.800781 25.601562 23.199219 25.601562 23.199219 28 C 23.199219 30.398438 26.800781 30.398438 26.800781 28 Z M 26.800781 28 "/>
<g fill="rgb(0%, 0%, 0%)" fill-opacity="1">
<use xlink:href="#glyph-0-1" x="29" y="28"/>
</g>
<path fill="none" stroke-width="0.4" stroke-linecap="butt" stroke-linejoin="round" stroke="rgb(0%, 0%, 0%)" stroke-opacity="1" stroke-dasharray="4 2 1 2 1 2" stroke-miterlimit="10" d="M 224 388 L 200 352 L 248 352 L 224 388 " transform="matrix(1, 0, 0, -1, -199, 416)"/>
<path fill="none" stroke-width="1.2" stroke-linecap="butt" stroke-linejoin="round" stroke="rgb(0%, 0%, 0%)" stroke-opacity="1" stroke-miterlimit="10" d="M 224 408 L 224 388 " transform="matrix(1, 0, 0, -1, -199, 416)"/>
<path fill-rule="evenodd" fill="rgb(0%, 0%, 0%)" fill-opacity="1" d="M 10.800781 60 C 10.800781 57.601562 7.199219 57.601562 7.199219 60 C 7.199219 62.398438 10.800781 62.398438 10.800781 60 Z M 10.800781 60 "/>
<path fill="none" stroke-width="0.4" stroke-linecap="butt" stroke-linejoin="round" stroke="rgb(0%, 0%, 0%)" stroke-opacity="1" stroke-miterlimit="10" d="M 208 356 C 200 377.332031 205.332031 394.667969 224 408 " transform="matrix(1, 0, 0, -1, -199, 416)"/>
<path fill-rule="evenodd" fill="rgb(0%, 0%, 0%)" fill-opacity="1" d="M 30.800781 56 C 30.800781 53.601562 27.199219 53.601562 27.199219 56 C 27.199219 58.398438 30.800781 58.398438 30.800781 56 Z M 30.800781 56 "/>
<g clip-path="url(#clip-1)">
<g fill="rgb(0%, 0%, 0%)" fill-opacity="1">
<use xlink:href="#glyph-0-2" x="33" y="60"/>
</g>
</g>
<path fill-rule="evenodd" fill="rgb(0%, 0%, 0%)" fill-opacity="1" d="M 54.800781 12 C 54.800781 9.601562 51.199219 9.601562 51.199219 12 C 51.199219 14.398438 54.800781 14.398438 54.800781 12 Z M 54.800781 12 "/>
<g fill="rgb(0%, 0%, 0%)" fill-opacity="1">
<use xlink:href="#glyph-0-3" x="57" y="12"/>
</g>
</svg>
